<svg width="570" height="158" viewBox="0 0 570 158" fill="none" xmlns="http://www.w3.org/2000/svg">
<path fill-rule="evenodd" clip-rule="evenodd" d="M81.0332 115.568L101.534 24.4516L111.427 84.9042L99.7772 89.3472L102.423 98.0797L112.927 94.072L123.372 157.907L131.729 156.539L121.003 90.9904L185.646 66.3252L188.028 59.0481L122.535 25.9706L117.374 34.5708L172.283 61.6944L119.503 81.824L106.326 1.29548L102.871 1.86074L98.1755 0.804169L72.7719 113.709L81.0332 115.568ZM89.1924 34.5708L86.5462 25.9706L3.32308 57.5927L0.941498 65.0021L66.435 98.0797L71.5951 89.3472L16.6864 62.2236L89.1924 34.5708ZM246.301 57.5273H251.188V48.4219C249.711 46.5469 247.496 44.8594 244.543 43.3594C241.59 41.8359 238.168 41.0742 234.277 41.0742C227.48 41.0742 221.984 43.5352 217.789 48.457C213.594 53.3555 211.496 59.5547 211.496 67.0547V67.793C211.496 75.2461 213.629 81.4336 217.895 86.3555C222.16 91.2773 227.621 93.7383 234.277 93.7383C238.168 93.7383 241.59 93 244.543 91.5234C247.496 90.0234 249.711 88.3242 251.188 86.4258V77.3203H246.301L245 84.5625C243.969 85.6172 242.504 86.5078 240.605 87.2344C238.707 87.9609 236.598 88.3242 234.277 88.3242C229.309 88.3242 225.418 86.3906 222.605 82.5234C219.816 78.6328 218.422 73.7227 218.422 67.793V66.9844C218.422 61.0547 219.852 56.168 222.711 52.3242C225.57 48.457 229.66 46.5234 234.98 46.5234C237.254 46.5234 239.211 46.875 240.852 47.5781C242.492 48.2812 243.875 49.1836 245 50.2852L246.301 57.5273ZM263.211 59.7422C260.164 63.375 258.641 68.0039 258.641 73.6289V74.4023C258.641 80.0508 260.164 84.6914 263.211 88.3242C266.258 91.9336 270.418 93.7383 275.691 93.7383C280.918 93.7383 285.055 91.9336 288.102 88.3242C291.148 84.7148 292.672 80.0742 292.672 74.4023V73.6289C292.672 67.9805 291.137 63.3398 288.066 59.707C285.02 56.0742 280.871 54.2578 275.621 54.2578C270.395 54.2578 266.258 56.0859 263.211 59.7422ZM268.098 84.3867C266.41 81.7617 265.566 78.4336 265.566 74.4023V73.6289C265.566 69.6445 266.41 66.3281 268.098 63.6797C269.785 61.0312 272.293 59.707 275.621 59.707C278.949 59.707 281.469 61.0312 283.18 63.6797C284.891 66.3281 285.746 69.6445 285.746 73.6289V74.4023C285.746 78.4336 284.891 81.7617 283.18 84.3867C281.469 87.0117 278.973 88.3242 275.691 88.3242C272.34 88.3242 269.809 87.0117 268.098 84.3867ZM320.094 92.4023C321.898 91.5117 323.422 90.1992 324.664 88.4648L325.227 93H336.969V88.5703L331.238 87.5859V38.1562H324.312H318.582V42.6211L324.312 43.6055V59.1094C323.094 57.5391 321.617 56.3438 319.883 55.5234C318.172 54.6797 316.191 54.2578 313.941 54.2578C309.254 54.2578 305.598 56.1328 302.973 59.8828C300.371 63.6328 299.07 68.5664 299.07 74.6836V75.4219C299.07 80.9062 300.371 85.3359 302.973 88.7109C305.598 92.0625 309.23 93.7383 313.871 93.7383C316.238 93.7383 318.312 93.293 320.094 92.4023ZM308.352 84.6328C306.781 82.3125 305.996 79.2422 305.996 75.4219V74.6836C305.996 70.3008 306.781 66.7383 308.352 63.9961C309.945 61.2539 312.395 59.8828 315.699 59.8828C317.691 59.8828 319.402 60.3516 320.832 61.2891C322.262 62.2266 323.422 63.4922 324.312 65.0859V82.7344C323.398 84.4453 322.238 85.7695 320.832 86.707C319.426 87.6445 317.691 88.1133 315.629 88.1133C312.348 88.1133 309.922 86.9531 308.352 84.6328ZM346.988 88.4648C350.129 91.9805 354.348 93.7383 359.645 93.7383C362.785 93.7383 365.469 93.293 367.695 92.4023C369.945 91.4883 371.75 90.375 373.109 89.0625L370.402 84.5625C369.113 85.7344 367.578 86.6602 365.797 87.3398C364.039 87.9961 361.988 88.3242 359.645 88.3242C356.434 88.3242 353.938 87.1523 352.156 84.8086C350.375 82.4414 349.449 79.4297 349.379 75.7734L349.484 75.5977H374.164V71.2734C374.164 66.1172 372.84 61.9922 370.191 58.8984C367.566 55.8047 363.699 54.2578 358.59 54.2578C354.184 54.2578 350.363 56.0625 347.129 59.6719C343.918 63.2578 342.312 67.7578 342.312 73.1719V74.7188C342.312 80.3438 343.871 84.9258 346.988 88.4648ZM352.648 62.6602C354.289 60.6914 356.27 59.707 358.59 59.707C361.449 59.707 363.605 60.6211 365.059 62.4492C366.512 64.2773 367.238 66.5508 367.238 69.2695V70.1836H349.695L349.625 70.0078C350 67.0547 351.008 64.6055 352.648 62.6602ZM382.953 71.7305C381.312 73.8633 380.492 76.3594 380.492 79.2188C380.492 83.5078 381.992 87 384.992 89.6953C388.016 92.3906 392.07 93.7383 397.156 93.7383C399.594 93.7383 401.949 93.375 404.223 92.6484C406.496 91.8984 408.57 90.8203 410.445 89.4141L413.434 93H421.484L421.555 92.8242L415.051 84.9492C416.785 82.8633 418.109 80.5078 419.023 77.8828C419.938 75.2578 420.395 72.4102 420.395 69.3398H414.207C414.207 71.4023 413.938 73.3594 413.398 75.2109C412.859 77.0625 412.109 78.75 411.148 80.2734L399.195 65.8945L403.027 63.082C405.441 61.3242 407.258 59.6133 408.477 57.9492C409.719 56.2617 410.34 54.2695 410.34 51.9727C410.34 48.9727 409.18 46.4062 406.859 44.2734C404.539 42.1406 401.527 41.0742 397.824 41.0742C393.816 41.0742 390.664 42.1523 388.367 44.3086C386.094 46.4414 384.957 49.4883 384.957 53.4492C384.957 55.3711 385.402 57.2461 386.293 59.0742C387.184 60.8789 388.543 62.9414 390.371 65.2617C387.09 67.418 384.617 69.5742 382.953 71.7305ZM402.148 87.4805C400.508 88.043 398.844 88.3242 397.156 88.3242C393.992 88.3242 391.578 87.4688 389.914 85.7578C388.25 84.0469 387.418 81.8672 387.418 79.2188C387.418 78.0469 387.758 76.7344 388.438 75.2812C389.141 73.8281 390.559 72.3047 392.691 70.7109L394.098 69.6914L406.789 84.9844C405.336 86.0625 403.789 86.8945 402.148 87.4805ZM392.832 57.2812C392.199 55.9219 391.883 54.6211 391.883 53.3789C391.883 51.457 392.398 49.8398 393.43 48.5273C394.461 47.1914 395.926 46.5234 397.824 46.5234C399.652 46.5234 401.129 47.0742 402.254 48.1758C403.402 49.2773 403.977 50.543 403.977 51.9727C403.977 53.2383 403.73 54.3984 403.238 55.4531C402.77 56.4844 401.867 57.4453 400.531 58.3359L395.68 61.6758C394.414 60.082 393.465 58.6172 392.832 57.2812ZM460.543 57.5273H465.43V48.4219C463.953 46.5469 461.738 44.8594 458.785 43.3594C455.832 41.8359 452.41 41.0742 448.52 41.0742C441.723 41.0742 436.227 43.5352 432.031 48.457C427.836 53.3555 425.738 59.5547 425.738 67.0547V67.793C425.738 75.2461 427.871 81.4336 432.137 86.3555C436.402 91.2773 441.863 93.7383 448.52 93.7383C452.41 93.7383 455.832 93 458.785 91.5234C461.738 90.0234 463.953 88.3242 465.43 86.4258V77.3203H460.543L459.242 84.5625C458.211 85.6172 456.746 86.5078 454.848 87.2344C452.949 87.9609 450.84 88.3242 448.52 88.3242C443.551 88.3242 439.66 86.3906 436.848 82.5234C434.059 78.6328 432.664 73.7227 432.664 67.793V66.9844C432.664 61.0547 434.094 56.168 436.953 52.3242C439.812 48.457 443.902 46.5234 449.223 46.5234C451.496 46.5234 453.453 46.875 455.094 47.5781C456.734 48.2812 458.117 49.1836 459.242 50.2852L460.543 57.5273ZM477.453 59.7422C474.406 63.375 472.883 68.0039 472.883 73.6289V74.4023C472.883 80.0508 474.406 84.6914 477.453 88.3242C480.5 91.9336 484.66 93.7383 489.934 93.7383C495.16 93.7383 499.297 91.9336 502.344 88.3242C505.391 84.7148 506.914 80.0742 506.914 74.4023V73.6289C506.914 67.9805 505.379 63.3398 502.309 59.707C499.262 56.0742 495.113 54.2578 489.863 54.2578C484.637 54.2578 480.5 56.0859 477.453 59.7422ZM482.34 84.3867C480.652 81.7617 479.809 78.4336 479.809 74.4023V73.6289C479.809 69.6445 480.652 66.3281 482.34 63.6797C484.027 61.0312 486.535 59.707 489.863 59.707C493.191 59.707 495.711 61.0312 497.422 63.6797C499.133 66.3281 499.988 69.6445 499.988 73.6289V74.4023C499.988 78.4336 499.133 81.7617 497.422 84.3867C495.711 87.0117 493.215 88.3242 489.934 88.3242C486.582 88.3242 484.051 87.0117 482.34 84.3867ZM518.551 54.9609H512.609V60.0938H518.551V87.5859L512.82 88.5703V93H531.207V88.5703L525.477 87.5859V60.0938H533.422V54.9609H525.477V50.1445C525.477 47.8477 525.969 46.1016 526.953 44.9062C527.937 43.6875 529.449 43.0781 531.488 43.0781C532.121 43.0781 532.73 43.1133 533.316 43.1836C533.926 43.2539 534.441 43.3359 534.863 43.4297L535.707 38.1562C534.723 37.9219 533.82 37.7461 533 37.6289C532.203 37.4883 531.406 37.418 530.609 37.418C526.812 37.418 523.848 38.5312 521.715 40.7578C519.605 42.9609 518.551 46.0898 518.551 50.1445V54.9609ZM542.738 88.4648C545.879 91.9805 550.098 93.7383 555.395 93.7383C558.535 93.7383 561.219 93.293 563.445 92.4023C565.695 91.4883 567.5 90.375 568.859 89.0625L566.152 84.5625C564.863 85.7344 563.328 86.6602 561.547 87.3398C559.789 87.9961 557.738 88.3242 555.395 88.3242C552.184 88.3242 549.687 87.1523 547.906 84.8086C546.125 82.4414 545.199 79.4297 545.129 75.7734L545.234 75.5977H569.914V71.2734C569.914 66.1172 568.59 61.9922 565.941 58.8984C563.316 55.8047 559.449 54.2578 554.34 54.2578C549.934 54.2578 546.113 56.0625 542.879 59.6719C539.668 63.2578 538.062 67.7578 538.062 73.1719V74.7188C538.062 80.3438 539.621 84.9258 542.738 88.4648ZM548.398 62.6602C550.039 60.6914 552.02 59.707 554.34 59.707C557.199 59.707 559.355 60.6211 560.809 62.4492C562.262 64.2773 562.988 66.5508 562.988 69.2695V70.1836H545.445L545.375 70.0078C545.75 67.0547 546.758 64.6055 548.398 62.6602Z" fill="white"/>
</svg>
