<svg width="666" height="158" viewBox="0 0 666 158" fill="none" xmlns="http://www.w3.org/2000/svg">
<mask id="path-1-inside-1" fill="white">
<path fill-rule="evenodd" clip-rule="evenodd" d="M101.534 24.4516L81.0332 115.568L72.7719 113.709L98.1755 0.804169L102.871 1.86074L106.326 1.29548L119.503 81.824L172.283 61.6944L117.374 34.5708L122.535 25.9706L188.028 59.0481L185.646 66.3252L121.003 90.9904L131.729 156.539L123.372 157.907L112.927 94.072L102.423 98.0797L99.7772 89.3472L111.427 84.9042L101.534 24.4516ZM86.5462 25.9706L89.1924 34.5708L16.6864 62.2236L71.5951 89.3472L66.435 98.0797L0.941498 65.0021L3.32308 57.5927L86.5462 25.9706ZM251.188 57.5273H246.301L245 50.2852C243.875 49.1836 242.492 48.2812 240.852 47.5781C239.211 46.875 237.254 46.5234 234.98 46.5234C229.66 46.5234 225.57 48.457 222.711 52.3242C219.852 56.168 218.422 61.0547 218.422 66.9844V67.793C218.422 73.7227 219.816 78.6328 222.605 82.5234C225.418 86.3906 229.309 88.3242 234.277 88.3242C236.598 88.3242 238.707 87.9609 240.605 87.2344C242.504 86.5078 243.969 85.6172 245 84.5625L246.301 77.3203H251.188V86.4258C249.711 88.3242 247.496 90.0234 244.543 91.5234C241.59 93 238.168 93.7383 234.277 93.7383C227.621 93.7383 222.16 91.2773 217.895 86.3555C213.629 81.4336 211.496 75.2461 211.496 67.793V67.0547C211.496 59.5547 213.594 53.3555 217.789 48.457C221.984 43.5352 227.48 41.0742 234.277 41.0742C238.168 41.0742 241.59 41.8359 244.543 43.3594C247.496 44.8594 249.711 46.5469 251.188 48.4219V57.5273ZM258.641 73.6289C258.641 68.0039 260.164 63.375 263.211 59.7422C266.258 56.0859 270.395 54.2578 275.621 54.2578C280.871 54.2578 285.02 56.0742 288.066 59.707C291.137 63.3398 292.672 67.9805 292.672 73.6289V74.4023C292.672 80.0742 291.148 84.7148 288.102 88.3242C285.055 91.9336 280.918 93.7383 275.691 93.7383C270.418 93.7383 266.258 91.9336 263.211 88.3242C260.164 84.6914 258.641 80.0508 258.641 74.4023V73.6289ZM265.566 74.4023C265.566 78.4336 266.41 81.7617 268.098 84.3867C269.809 87.0117 272.34 88.3242 275.691 88.3242C278.973 88.3242 281.469 87.0117 283.18 84.3867C284.891 81.7617 285.746 78.4336 285.746 74.4023V73.6289C285.746 69.6445 284.891 66.3281 283.18 63.6797C281.469 61.0312 278.949 59.707 275.621 59.707C272.293 59.707 269.785 61.0312 268.098 63.6797C266.41 66.3281 265.566 69.6445 265.566 73.6289V74.4023ZM324.664 88.4648C323.422 90.1992 321.898 91.5117 320.094 92.4023C318.312 93.293 316.238 93.7383 313.871 93.7383C309.23 93.7383 305.598 92.0625 302.973 88.7109C300.371 85.3359 299.07 80.9062 299.07 75.4219V74.6836C299.07 68.5664 300.371 63.6328 302.973 59.8828C305.598 56.1328 309.254 54.2578 313.941 54.2578C316.191 54.2578 318.172 54.6797 319.883 55.5234C321.617 56.3438 323.094 57.5391 324.312 59.1094V43.6055L318.582 42.6211V38.1562H324.312H331.238V87.5859L336.969 88.5703V93H325.227L324.664 88.4648ZM305.996 75.4219C305.996 79.2422 306.781 82.3125 308.352 84.6328C309.922 86.9531 312.348 88.1133 315.629 88.1133C317.691 88.1133 319.426 87.6445 320.832 86.707C322.238 85.7695 323.398 84.4453 324.312 82.7344V65.0859C323.422 63.4922 322.262 62.2266 320.832 61.2891C319.402 60.3516 317.691 59.8828 315.699 59.8828C312.395 59.8828 309.945 61.2539 308.352 63.9961C306.781 66.7383 305.996 70.3008 305.996 74.6836V75.4219ZM359.645 93.7383C354.348 93.7383 350.129 91.9805 346.988 88.4648C343.871 84.9258 342.312 80.3438 342.312 74.7188V73.1719C342.312 67.7578 343.918 63.2578 347.129 59.6719C350.363 56.0625 354.184 54.2578 358.59 54.2578C363.699 54.2578 367.566 55.8047 370.191 58.8984C372.84 61.9922 374.164 66.1172 374.164 71.2734V75.5977H349.484L349.379 75.7734C349.449 79.4297 350.375 82.4414 352.156 84.8086C353.938 87.1523 356.434 88.3242 359.645 88.3242C361.988 88.3242 364.039 87.9961 365.797 87.3398C367.578 86.6602 369.113 85.7344 370.402 84.5625L373.109 89.0625C371.75 90.375 369.945 91.4883 367.695 92.4023C365.469 93.293 362.785 93.7383 359.645 93.7383ZM358.59 59.707C356.27 59.707 354.289 60.6914 352.648 62.6602C351.008 64.6055 350 67.0547 349.625 70.0078L349.695 70.1836H367.238V69.2695C367.238 66.5508 366.512 64.2773 365.059 62.4492C363.605 60.6211 361.449 59.707 358.59 59.707ZM380.492 79.2188C380.492 76.3594 381.312 73.8633 382.953 71.7305C384.617 69.5742 387.09 67.418 390.371 65.2617C388.543 62.9414 387.184 60.8789 386.293 59.0742C385.402 57.2461 384.957 55.3711 384.957 53.4492C384.957 49.4883 386.094 46.4414 388.367 44.3086C390.664 42.1523 393.816 41.0742 397.824 41.0742C401.527 41.0742 404.539 42.1406 406.859 44.2734C409.18 46.4062 410.34 48.9727 410.34 51.9727C410.34 54.2695 409.719 56.2617 408.477 57.9492C407.258 59.6133 405.441 61.3242 403.027 63.082L399.195 65.8945L411.148 80.2734C412.109 78.75 412.859 77.0625 413.398 75.2109C413.938 73.3594 414.207 71.4023 414.207 69.3398H420.395C420.395 72.4102 419.938 75.2578 419.023 77.8828C418.109 80.5078 416.785 82.8633 415.051 84.9492L421.555 92.8242L421.484 93H413.434L410.445 89.4141C408.57 90.8203 406.496 91.8984 404.223 92.6484C401.949 93.375 399.594 93.7383 397.156 93.7383C392.07 93.7383 388.016 92.3906 384.992 89.6953C381.992 87 380.492 83.5078 380.492 79.2188ZM397.156 88.3242C398.844 88.3242 400.508 88.043 402.148 87.4805C403.789 86.8945 405.336 86.0625 406.789 84.9844L394.098 69.6914L392.691 70.7109C390.559 72.3047 389.141 73.8281 388.438 75.2812C387.758 76.7344 387.418 78.0469 387.418 79.2188C387.418 81.8672 388.25 84.0469 389.914 85.7578C391.578 87.4688 393.992 88.3242 397.156 88.3242ZM391.883 53.3789C391.883 54.6211 392.199 55.9219 392.832 57.2812C393.465 58.6172 394.414 60.082 395.68 61.6758L400.531 58.3359C401.867 57.4453 402.77 56.4844 403.238 55.4531C403.73 54.3984 403.977 53.2383 403.977 51.9727C403.977 50.543 403.402 49.2773 402.254 48.1758C401.129 47.0742 399.652 46.5234 397.824 46.5234C395.926 46.5234 394.461 47.1914 393.43 48.5273C392.398 49.8398 391.883 51.457 391.883 53.3789ZM465.43 57.5273H460.543L459.242 50.2852C458.117 49.1836 456.734 48.2812 455.094 47.5781C453.453 46.875 451.496 46.5234 449.223 46.5234C443.902 46.5234 439.812 48.457 436.953 52.3242C434.094 56.168 432.664 61.0547 432.664 66.9844V67.793C432.664 73.7227 434.059 78.6328 436.848 82.5234C439.66 86.3906 443.551 88.3242 448.52 88.3242C450.84 88.3242 452.949 87.9609 454.848 87.2344C456.746 86.5078 458.211 85.6172 459.242 84.5625L460.543 77.3203H465.43V86.4258C463.953 88.3242 461.738 90.0234 458.785 91.5234C455.832 93 452.41 93.7383 448.52 93.7383C441.863 93.7383 436.402 91.2773 432.137 86.3555C427.871 81.4336 425.738 75.2461 425.738 67.793V67.0547C425.738 59.5547 427.836 53.3555 432.031 48.457C436.227 43.5352 441.723 41.0742 448.52 41.0742C452.41 41.0742 455.832 41.8359 458.785 43.3594C461.738 44.8594 463.953 46.5469 465.43 48.4219V57.5273ZM472.883 73.6289C472.883 68.0039 474.406 63.375 477.453 59.7422C480.5 56.0859 484.637 54.2578 489.863 54.2578C495.113 54.2578 499.262 56.0742 502.309 59.707C505.379 63.3398 506.914 67.9805 506.914 73.6289V74.4023C506.914 80.0742 505.391 84.7148 502.344 88.3242C499.297 91.9336 495.16 93.7383 489.934 93.7383C484.66 93.7383 480.5 91.9336 477.453 88.3242C474.406 84.6914 472.883 80.0508 472.883 74.4023V73.6289ZM479.809 74.4023C479.809 78.4336 480.652 81.7617 482.34 84.3867C484.051 87.0117 486.582 88.3242 489.934 88.3242C493.215 88.3242 495.711 87.0117 497.422 84.3867C499.133 81.7617 499.988 78.4336 499.988 74.4023V73.6289C499.988 69.6445 499.133 66.3281 497.422 63.6797C495.711 61.0312 493.191 59.707 489.863 59.707C486.535 59.707 484.027 61.0312 482.34 63.6797C480.652 66.3281 479.809 69.6445 479.809 73.6289V74.4023ZM512.609 54.9609H518.551V50.1445C518.551 46.0898 519.605 42.9609 521.715 40.7578C523.848 38.5312 526.812 37.418 530.609 37.418C531.406 37.418 532.203 37.4883 533 37.6289C533.82 37.7461 534.723 37.9219 535.707 38.1562L534.863 43.4297C534.441 43.3359 533.926 43.2539 533.316 43.1836C532.73 43.1133 532.121 43.0781 531.488 43.0781C529.449 43.0781 527.937 43.6875 526.953 44.9062C525.969 46.1016 525.477 47.8477 525.477 50.1445V54.9609H533.422V60.0938H525.477V87.5859L531.207 88.5703V93H512.82V88.5703L518.551 87.5859V60.0938H512.609V54.9609ZM555.395 93.7383C550.098 93.7383 545.879 91.9805 542.738 88.4648C539.621 84.9258 538.062 80.3438 538.062 74.7188V73.1719C538.062 67.7578 539.668 63.2578 542.879 59.6719C546.113 56.0625 549.934 54.2578 554.34 54.2578C559.449 54.2578 563.316 55.8047 565.941 58.8984C568.59 61.9922 569.914 66.1172 569.914 71.2734V75.5977H545.234L545.129 75.7734C545.199 79.4297 546.125 82.4414 547.906 84.8086C549.687 87.1523 552.184 88.3242 555.395 88.3242C557.738 88.3242 559.789 87.9961 561.547 87.3398C563.328 86.6602 564.863 85.7344 566.152 84.5625L568.859 89.0625C567.5 90.375 565.695 91.4883 563.445 92.4023C561.219 93.293 558.535 93.7383 555.395 93.7383ZM554.34 59.707C552.02 59.707 550.039 60.6914 548.398 62.6602C546.758 64.6055 545.75 67.0547 545.375 70.0078L545.445 70.1836H562.988V69.2695C562.988 66.5508 562.262 64.2773 560.809 62.4492C559.355 60.6211 557.199 59.707 554.34 59.707ZM602.179 5.84923H600.992L601.915 4.67366L604.798 1H651.887L654.77 4.67366L655.693 5.84923H654.725L653.272 4.52671H653.16L651.315 2.17557H605.37L603.525 4.52671H603.363L602.179 5.84923ZM594.12 7.05201L593.928 7.07892C592.763 7.24171 592.176 8.0194 592.176 8.64121C592.176 9.26302 592.763 10.0407 593.928 10.2035L594.12 10.2304L594.318 10.2304L662.331 10.2304H662.331H662.733L663.105 10.121C664.031 9.84826 664.473 9.19323 664.473 8.64121C664.473 8.08918 664.031 7.43416 663.105 7.16143L662.733 7.05201H662.331H594.318H594.12ZM663.437 6.03376V5.87644H662.331H662.261H594.94H594.318H593.765V5.91467C592.196 6.13404 591 7.27127 591 8.64121C591 10.0111 592.196 11.1484 593.765 11.3677V11.406L594.318 11.406L594.94 11.406H595.177L598.641 34.3969V34.5038L604.313 73.4222L604.517 73.3924L608.038 96.7574L608.029 97.3967L648.586 97.9844L648.603 96.809L652.127 73.4219L652.13 73.4222L652.209 72.8784L661.472 11.406H662.261H662.331H662.331H663.437V11.2487C664.725 10.8691 665.649 9.84501 665.649 8.64121C665.649 7.43741 664.725 6.4133 663.437 6.03376ZM657.068 32.7404L660.283 11.406H596.366L599.58 32.7404H657.068ZM605.692 73.2976L609.148 96.2372L648.603 96.809L647.44 96.6338L650.957 73.2976H605.692ZM656.019 34.5038H600.423L605.82 71.5342H650.623L656.019 34.5038ZM628.773 43.1555L624.504 62.1297L622.783 61.7426L628.073 38.2312L629.051 38.4512L629.771 38.3335L632.602 55.6341L643.506 51.4754L632.071 45.8272L633.146 44.0363L646.784 50.9244L646.289 52.4398L632.914 57.5429L635.061 70.6617L633.321 70.9464L631.232 58.1846L628.958 59.0524L628.407 57.2339L630.92 56.2755L628.773 43.1555ZM625.652 44.0363L626.203 45.8272L611.104 51.5857L622.538 57.2339L621.464 59.0524L607.825 52.1643L608.321 50.6213L625.652 44.0363Z"/>
</mask>
<path fill-rule="evenodd" clip-rule="evenodd" d="M101.534 24.4516L81.0332 115.568L72.7719 113.709L98.1755 0.804169L102.871 1.86074L106.326 1.29548L119.503 81.824L172.283 61.6944L117.374 34.5708L122.535 25.9706L188.028 59.0481L185.646 66.3252L121.003 90.9904L131.729 156.539L123.372 157.907L112.927 94.072L102.423 98.0797L99.7772 89.3472L111.427 84.9042L101.534 24.4516ZM86.5462 25.9706L89.1924 34.5708L16.6864 62.2236L71.5951 89.3472L66.435 98.0797L0.941498 65.0021L3.32308 57.5927L86.5462 25.9706ZM251.188 57.5273H246.301L245 50.2852C243.875 49.1836 242.492 48.2812 240.852 47.5781C239.211 46.875 237.254 46.5234 234.98 46.5234C229.66 46.5234 225.57 48.457 222.711 52.3242C219.852 56.168 218.422 61.0547 218.422 66.9844V67.793C218.422 73.7227 219.816 78.6328 222.605 82.5234C225.418 86.3906 229.309 88.3242 234.277 88.3242C236.598 88.3242 238.707 87.9609 240.605 87.2344C242.504 86.5078 243.969 85.6172 245 84.5625L246.301 77.3203H251.188V86.4258C249.711 88.3242 247.496 90.0234 244.543 91.5234C241.59 93 238.168 93.7383 234.277 93.7383C227.621 93.7383 222.16 91.2773 217.895 86.3555C213.629 81.4336 211.496 75.2461 211.496 67.793V67.0547C211.496 59.5547 213.594 53.3555 217.789 48.457C221.984 43.5352 227.48 41.0742 234.277 41.0742C238.168 41.0742 241.59 41.8359 244.543 43.3594C247.496 44.8594 249.711 46.5469 251.188 48.4219V57.5273ZM258.641 73.6289C258.641 68.0039 260.164 63.375 263.211 59.7422C266.258 56.0859 270.395 54.2578 275.621 54.2578C280.871 54.2578 285.02 56.0742 288.066 59.707C291.137 63.3398 292.672 67.9805 292.672 73.6289V74.4023C292.672 80.0742 291.148 84.7148 288.102 88.3242C285.055 91.9336 280.918 93.7383 275.691 93.7383C270.418 93.7383 266.258 91.9336 263.211 88.3242C260.164 84.6914 258.641 80.0508 258.641 74.4023V73.6289ZM265.566 74.4023C265.566 78.4336 266.41 81.7617 268.098 84.3867C269.809 87.0117 272.34 88.3242 275.691 88.3242C278.973 88.3242 281.469 87.0117 283.18 84.3867C284.891 81.7617 285.746 78.4336 285.746 74.4023V73.6289C285.746 69.6445 284.891 66.3281 283.18 63.6797C281.469 61.0312 278.949 59.707 275.621 59.707C272.293 59.707 269.785 61.0312 268.098 63.6797C266.41 66.3281 265.566 69.6445 265.566 73.6289V74.4023ZM324.664 88.4648C323.422 90.1992 321.898 91.5117 320.094 92.4023C318.312 93.293 316.238 93.7383 313.871 93.7383C309.23 93.7383 305.598 92.0625 302.973 88.7109C300.371 85.3359 299.07 80.9062 299.07 75.4219V74.6836C299.07 68.5664 300.371 63.6328 302.973 59.8828C305.598 56.1328 309.254 54.2578 313.941 54.2578C316.191 54.2578 318.172 54.6797 319.883 55.5234C321.617 56.3438 323.094 57.5391 324.312 59.1094V43.6055L318.582 42.6211V38.1562H324.312H331.238V87.5859L336.969 88.5703V93H325.227L324.664 88.4648ZM305.996 75.4219C305.996 79.2422 306.781 82.3125 308.352 84.6328C309.922 86.9531 312.348 88.1133 315.629 88.1133C317.691 88.1133 319.426 87.6445 320.832 86.707C322.238 85.7695 323.398 84.4453 324.312 82.7344V65.0859C323.422 63.4922 322.262 62.2266 320.832 61.2891C319.402 60.3516 317.691 59.8828 315.699 59.8828C312.395 59.8828 309.945 61.2539 308.352 63.9961C306.781 66.7383 305.996 70.3008 305.996 74.6836V75.4219ZM359.645 93.7383C354.348 93.7383 350.129 91.9805 346.988 88.4648C343.871 84.9258 342.312 80.3438 342.312 74.7188V73.1719C342.312 67.7578 343.918 63.2578 347.129 59.6719C350.363 56.0625 354.184 54.2578 358.59 54.2578C363.699 54.2578 367.566 55.8047 370.191 58.8984C372.84 61.9922 374.164 66.1172 374.164 71.2734V75.5977H349.484L349.379 75.7734C349.449 79.4297 350.375 82.4414 352.156 84.8086C353.938 87.1523 356.434 88.3242 359.645 88.3242C361.988 88.3242 364.039 87.9961 365.797 87.3398C367.578 86.6602 369.113 85.7344 370.402 84.5625L373.109 89.0625C371.75 90.375 369.945 91.4883 367.695 92.4023C365.469 93.293 362.785 93.7383 359.645 93.7383ZM358.59 59.707C356.27 59.707 354.289 60.6914 352.648 62.6602C351.008 64.6055 350 67.0547 349.625 70.0078L349.695 70.1836H367.238V69.2695C367.238 66.5508 366.512 64.2773 365.059 62.4492C363.605 60.6211 361.449 59.707 358.59 59.707ZM380.492 79.2188C380.492 76.3594 381.312 73.8633 382.953 71.7305C384.617 69.5742 387.09 67.418 390.371 65.2617C388.543 62.9414 387.184 60.8789 386.293 59.0742C385.402 57.2461 384.957 55.3711 384.957 53.4492C384.957 49.4883 386.094 46.4414 388.367 44.3086C390.664 42.1523 393.816 41.0742 397.824 41.0742C401.527 41.0742 404.539 42.1406 406.859 44.2734C409.18 46.4062 410.34 48.9727 410.34 51.9727C410.34 54.2695 409.719 56.2617 408.477 57.9492C407.258 59.6133 405.441 61.3242 403.027 63.082L399.195 65.8945L411.148 80.2734C412.109 78.75 412.859 77.0625 413.398 75.2109C413.938 73.3594 414.207 71.4023 414.207 69.3398H420.395C420.395 72.4102 419.938 75.2578 419.023 77.8828C418.109 80.5078 416.785 82.8633 415.051 84.9492L421.555 92.8242L421.484 93H413.434L410.445 89.4141C408.57 90.8203 406.496 91.8984 404.223 92.6484C401.949 93.375 399.594 93.7383 397.156 93.7383C392.07 93.7383 388.016 92.3906 384.992 89.6953C381.992 87 380.492 83.5078 380.492 79.2188ZM397.156 88.3242C398.844 88.3242 400.508 88.043 402.148 87.4805C403.789 86.8945 405.336 86.0625 406.789 84.9844L394.098 69.6914L392.691 70.7109C390.559 72.3047 389.141 73.8281 388.438 75.2812C387.758 76.7344 387.418 78.0469 387.418 79.2188C387.418 81.8672 388.25 84.0469 389.914 85.7578C391.578 87.4688 393.992 88.3242 397.156 88.3242ZM391.883 53.3789C391.883 54.6211 392.199 55.9219 392.832 57.2812C393.465 58.6172 394.414 60.082 395.68 61.6758L400.531 58.3359C401.867 57.4453 402.77 56.4844 403.238 55.4531C403.73 54.3984 403.977 53.2383 403.977 51.9727C403.977 50.543 403.402 49.2773 402.254 48.1758C401.129 47.0742 399.652 46.5234 397.824 46.5234C395.926 46.5234 394.461 47.1914 393.43 48.5273C392.398 49.8398 391.883 51.457 391.883 53.3789ZM465.43 57.5273H460.543L459.242 50.2852C458.117 49.1836 456.734 48.2812 455.094 47.5781C453.453 46.875 451.496 46.5234 449.223 46.5234C443.902 46.5234 439.812 48.457 436.953 52.3242C434.094 56.168 432.664 61.0547 432.664 66.9844V67.793C432.664 73.7227 434.059 78.6328 436.848 82.5234C439.66 86.3906 443.551 88.3242 448.52 88.3242C450.84 88.3242 452.949 87.9609 454.848 87.2344C456.746 86.5078 458.211 85.6172 459.242 84.5625L460.543 77.3203H465.43V86.4258C463.953 88.3242 461.738 90.0234 458.785 91.5234C455.832 93 452.41 93.7383 448.52 93.7383C441.863 93.7383 436.402 91.2773 432.137 86.3555C427.871 81.4336 425.738 75.2461 425.738 67.793V67.0547C425.738 59.5547 427.836 53.3555 432.031 48.457C436.227 43.5352 441.723 41.0742 448.52 41.0742C452.41 41.0742 455.832 41.8359 458.785 43.3594C461.738 44.8594 463.953 46.5469 465.43 48.4219V57.5273ZM472.883 73.6289C472.883 68.0039 474.406 63.375 477.453 59.7422C480.5 56.0859 484.637 54.2578 489.863 54.2578C495.113 54.2578 499.262 56.0742 502.309 59.707C505.379 63.3398 506.914 67.9805 506.914 73.6289V74.4023C506.914 80.0742 505.391 84.7148 502.344 88.3242C499.297 91.9336 495.16 93.7383 489.934 93.7383C484.66 93.7383 480.5 91.9336 477.453 88.3242C474.406 84.6914 472.883 80.0508 472.883 74.4023V73.6289ZM479.809 74.4023C479.809 78.4336 480.652 81.7617 482.34 84.3867C484.051 87.0117 486.582 88.3242 489.934 88.3242C493.215 88.3242 495.711 87.0117 497.422 84.3867C499.133 81.7617 499.988 78.4336 499.988 74.4023V73.6289C499.988 69.6445 499.133 66.3281 497.422 63.6797C495.711 61.0312 493.191 59.707 489.863 59.707C486.535 59.707 484.027 61.0312 482.34 63.6797C480.652 66.3281 479.809 69.6445 479.809 73.6289V74.4023ZM512.609 54.9609H518.551V50.1445C518.551 46.0898 519.605 42.9609 521.715 40.7578C523.848 38.5312 526.812 37.418 530.609 37.418C531.406 37.418 532.203 37.4883 533 37.6289C533.82 37.7461 534.723 37.9219 535.707 38.1562L534.863 43.4297C534.441 43.3359 533.926 43.2539 533.316 43.1836C532.73 43.1133 532.121 43.0781 531.488 43.0781C529.449 43.0781 527.937 43.6875 526.953 44.9062C525.969 46.1016 525.477 47.8477 525.477 50.1445V54.9609H533.422V60.0938H525.477V87.5859L531.207 88.5703V93H512.82V88.5703L518.551 87.5859V60.0938H512.609V54.9609ZM555.395 93.7383C550.098 93.7383 545.879 91.9805 542.738 88.4648C539.621 84.9258 538.062 80.3438 538.062 74.7188V73.1719C538.062 67.7578 539.668 63.2578 542.879 59.6719C546.113 56.0625 549.934 54.2578 554.34 54.2578C559.449 54.2578 563.316 55.8047 565.941 58.8984C568.59 61.9922 569.914 66.1172 569.914 71.2734V75.5977H545.234L545.129 75.7734C545.199 79.4297 546.125 82.4414 547.906 84.8086C549.687 87.1523 552.184 88.3242 555.395 88.3242C557.738 88.3242 559.789 87.9961 561.547 87.3398C563.328 86.6602 564.863 85.7344 566.152 84.5625L568.859 89.0625C567.5 90.375 565.695 91.4883 563.445 92.4023C561.219 93.293 558.535 93.7383 555.395 93.7383ZM554.34 59.707C552.02 59.707 550.039 60.6914 548.398 62.6602C546.758 64.6055 545.75 67.0547 545.375 70.0078L545.445 70.1836H562.988V69.2695C562.988 66.5508 562.262 64.2773 560.809 62.4492C559.355 60.6211 557.199 59.707 554.34 59.707ZM602.179 5.84923H600.992L601.915 4.67366L604.798 1H651.887L654.77 4.67366L655.693 5.84923H654.725L653.272 4.52671H653.16L651.315 2.17557H605.37L603.525 4.52671H603.363L602.179 5.84923ZM594.12 7.05201L593.928 7.07892C592.763 7.24171 592.176 8.0194 592.176 8.64121C592.176 9.26302 592.763 10.0407 593.928 10.2035L594.12 10.2304L594.318 10.2304L662.331 10.2304H662.331H662.733L663.105 10.121C664.031 9.84826 664.473 9.19323 664.473 8.64121C664.473 8.08918 664.031 7.43416 663.105 7.16143L662.733 7.05201H662.331H594.318H594.12ZM663.437 6.03376V5.87644H662.331H662.261H594.94H594.318H593.765V5.91467C592.196 6.13404 591 7.27127 591 8.64121C591 10.0111 592.196 11.1484 593.765 11.3677V11.406L594.318 11.406L594.94 11.406H595.177L598.641 34.3969V34.5038L604.313 73.4222L604.517 73.3924L608.038 96.7574L608.029 97.3967L648.586 97.9844L648.603 96.809L652.127 73.4219L652.13 73.4222L652.209 72.8784L661.472 11.406H662.261H662.331H662.331H663.437V11.2487C664.725 10.8691 665.649 9.84501 665.649 8.64121C665.649 7.43741 664.725 6.4133 663.437 6.03376ZM657.068 32.7404L660.283 11.406H596.366L599.58 32.7404H657.068ZM605.692 73.2976L609.148 96.2372L648.603 96.809L647.44 96.6338L650.957 73.2976H605.692ZM656.019 34.5038H600.423L605.82 71.5342H650.623L656.019 34.5038ZM628.773 43.1555L624.504 62.1297L622.783 61.7426L628.073 38.2312L629.051 38.4512L629.771 38.3335L632.602 55.6341L643.506 51.4754L632.071 45.8272L633.146 44.0363L646.784 50.9244L646.289 52.4398L632.914 57.5429L635.061 70.6617L633.321 70.9464L631.232 58.1846L628.958 59.0524L628.407 57.2339L630.92 56.2755L628.773 43.1555ZM625.652 44.0363L626.203 45.8272L611.104 51.5857L622.538 57.2339L621.464 59.0524L607.825 52.1643L608.321 50.6213L625.652 44.0363Z" fill="white"/>
<path d="M650.613 -11.0894H606.072V20.1428H650.613V-11.0894ZM81.0332 115.568L74.1774 146.038L104.648 152.894L111.504 122.423L81.0332 115.568ZM101.534 24.4516L132.357 19.4079L71.0638 17.5957L101.534 24.4516ZM72.7719 113.709L42.3014 106.853L35.4456 137.323L65.9161 144.179L72.7719 113.709ZM98.1755 0.804169L105.031 -29.6663L74.5608 -36.5222L67.705 -6.05169L98.1755 0.804169ZM102.871 1.86074L96.0155 32.3312L101.931 33.6623L107.915 32.6831L102.871 1.86074ZM106.326 1.29548L137.148 -3.74817L132.104 -34.5705L101.282 -29.5268L106.326 1.29548ZM119.503 81.824L88.6807 86.8676L94.863 124.648L130.633 111.006L119.503 81.824ZM172.283 61.6944L183.413 90.8763L250.264 65.3801L186.116 33.6922L172.283 61.6944ZM117.374 34.5708L90.593 18.5019L73.1563 47.5631L103.542 62.5729L117.374 34.5708ZM122.535 25.9706L136.615 -1.90783L110.694 -14.9992L95.7531 9.90174L122.535 25.9706ZM188.028 59.0481L217.711 68.7626L226.056 43.2646L202.108 31.1697L188.028 59.0481ZM185.646 66.3252L196.78 95.5055L210.697 90.1956L215.33 76.0396L185.646 66.3252ZM121.003 90.9904L109.869 61.8102L86.0665 70.8922L90.1807 96.0341L121.003 90.9904ZM131.729 156.539L136.773 187.362L167.595 182.318L162.552 151.496L131.729 156.539ZM123.372 157.907L92.5502 162.951L97.5938 193.773L128.416 188.729L123.372 157.907ZM112.927 94.072L143.749 89.0283L137.566 51.2422L101.793 64.8917L112.927 94.072ZM102.423 98.0797L72.5333 107.137L82.2509 139.205L113.557 127.26L102.423 98.0797ZM99.7772 89.3472L88.6476 60.1652L61.4434 70.5405L69.8871 98.4048L99.7772 89.3472ZM111.427 84.9042L122.556 114.086L146.364 105.006L142.249 79.8606L111.427 84.9042ZM89.1924 34.5708L100.322 63.7527L127.643 53.333L119.044 25.3858L89.1924 34.5708ZM86.5462 25.9706L116.397 16.7856L106.599 -15.0596L75.4527 -3.22511L86.5462 25.9706ZM16.6864 62.2236L5.55679 33.0416L-61.2946 58.5379L2.85402 90.2257L16.6864 62.2236ZM71.5951 89.3472L98.4838 105.236L115.609 76.2542L85.4275 61.345L71.5951 89.3472ZM66.435 98.0797L52.355 125.958L78.4509 139.138L93.3237 113.968L66.435 98.0797ZM0.941498 65.0021L-28.7925 55.4448L-36.9586 80.8502L-13.1385 92.8806L0.941498 65.0021ZM3.32308 57.5927L-7.77037 28.397L-21.8138 33.7331L-26.4109 48.0354L3.32308 57.5927ZM246.301 57.5273L215.56 63.0487L220.178 88.7596H246.301V57.5273ZM251.188 57.5273V88.7596H282.42V57.5273H251.188ZM245 50.2852L275.74 44.7638L273.977 34.9472L266.851 27.9694L245 50.2852ZM222.711 52.3242L247.77 70.9656L247.797 70.9292L247.824 70.8927L222.711 52.3242ZM222.605 82.5234L197.222 100.72L197.284 100.807L197.347 100.893L222.605 82.5234ZM245 84.5625L267.331 106.398L274.043 99.5331L275.74 90.0838L245 84.5625ZM246.301 77.3203V46.088H220.178L215.56 71.799L246.301 77.3203ZM251.188 77.3203H282.42V46.088H251.188V77.3203ZM251.188 86.4258L275.841 105.601L282.42 97.1418V86.4258H251.188ZM244.543 91.5234L258.51 119.458L258.599 119.414L258.687 119.369L244.543 91.5234ZM217.789 48.457L241.51 68.7734L241.534 68.7454L241.558 68.7174L217.789 48.457ZM244.543 43.3594L230.224 71.1159L230.311 71.1609L230.399 71.2054L244.543 43.3594ZM251.188 48.4219H282.42V37.6005L275.725 29.0988L251.188 48.4219ZM263.211 59.7422L287.141 79.8124L287.173 79.7746L287.204 79.7366L263.211 59.7422ZM288.066 59.707L264.137 79.7773L264.174 79.8224L264.212 79.8675L288.066 59.707ZM263.211 88.3242L239.281 108.394L239.313 108.433L239.345 108.471L263.211 88.3242ZM268.098 84.3867L241.826 101.276L241.879 101.358L241.933 101.441L268.098 84.3867ZM320.094 92.4023L306.272 64.395L306.199 64.431L306.126 64.4674L320.094 92.4023ZM324.664 88.4648L355.659 84.6205L345.819 5.28919L299.273 70.279L324.664 88.4648ZM302.973 88.7109L278.236 107.778L278.31 107.874L278.384 107.969L302.973 88.7109ZM302.973 59.8828L277.386 41.9723L277.349 42.0261L277.311 42.0801L302.973 59.8828ZM319.883 55.5234L306.069 83.5348L306.298 83.6478L306.529 83.757L319.883 55.5234ZM324.312 59.1094L299.639 78.2586L355.545 150.291V59.1094H324.312ZM324.312 43.6055H355.545V17.2808L329.6 12.824L324.312 43.6055ZM318.582 42.6211H287.35V68.9458L313.294 73.4025L318.582 42.6211ZM318.582 38.1562V6.92398H287.35V38.1562H318.582ZM331.238 38.1562H362.471V6.92398H331.238V38.1562ZM331.238 87.5859H300.006V113.911L325.951 118.367L331.238 87.5859ZM336.969 88.5703H368.201V62.2456L342.256 57.7889L336.969 88.5703ZM336.969 93V124.232H368.201V93H336.969ZM325.227 93L294.232 96.8443L297.629 124.232H325.227V93ZM324.312 82.7344L351.86 97.4515L355.545 90.5542V82.7344H324.312ZM324.312 65.0859H355.545V56.9513L351.577 49.8502L324.312 65.0859ZM308.352 63.9961L281.349 48.3021L281.298 48.3887L281.249 48.4756L308.352 63.9961ZM346.988 88.4648L323.551 109.108L323.623 109.19L323.696 109.272L346.988 88.4648ZM347.129 59.6719L323.869 38.8287L323.861 38.8375L347.129 59.6719ZM370.191 58.8984L346.377 79.105L346.421 79.1573L346.465 79.2093L370.191 58.8984ZM374.164 75.5977V106.83H405.396V75.5977H374.164ZM349.484 75.5977V44.3654H331.801L322.703 59.5288L349.484 75.5977ZM349.379 75.7734L322.597 59.7046L317.98 67.4006L318.152 76.3739L349.379 75.7734ZM352.156 84.8086L327.2 103.587L327.245 103.647L327.29 103.707L352.156 84.8086ZM365.797 87.3398L376.72 116.6L376.826 116.56L376.931 116.52L365.797 87.3398ZM370.402 84.5625L397.165 68.4629L377.55 35.8555L349.393 61.4525L370.402 84.5625ZM373.109 89.0625L394.803 111.531L412.687 94.2643L399.872 72.9629L373.109 89.0625ZM367.695 92.4023L379.295 121.401L379.373 121.37L379.45 121.338L367.695 92.4023ZM352.648 62.6602L376.523 82.7957L376.583 82.7253L376.642 82.6546L352.648 62.6602ZM349.625 70.0078L318.642 66.0734L317.623 74.0973L320.627 81.6072L349.625 70.0078ZM349.695 70.1836L320.697 81.783L328.55 101.416H349.695V70.1836ZM367.238 70.1836V101.416H398.471V70.1836H367.238ZM382.953 71.7305L358.228 52.6489L358.213 52.6683L358.198 52.6878L382.953 71.7305ZM390.371 65.2617L407.523 91.3627L435.969 72.6697L414.904 45.9329L390.371 65.2617ZM386.293 59.0742L358.215 72.753L358.25 72.8246L358.286 72.896L386.293 59.0742ZM388.367 44.3086L409.736 67.0864L409.744 67.0792L388.367 44.3086ZM408.477 57.9492L383.324 39.4342L383.302 39.4646L383.279 39.495L408.477 57.9492ZM403.027 63.082L384.643 37.834L384.595 37.8687L384.548 37.9035L403.027 63.082ZM399.195 65.8945L380.716 40.716L353.969 60.3467L375.178 85.86L399.195 65.8945ZM411.148 80.2734L387.131 100.239L414.622 133.309L437.565 96.936L411.148 80.2734ZM414.207 69.3398V38.1076H382.975V69.3398H414.207ZM420.395 69.3398H451.627V38.1076H420.395V69.3398ZM415.051 84.9492L391.035 64.9814L374.489 84.8823L390.97 104.838L415.051 84.9492ZM421.555 92.8242L450.553 104.424L457.434 87.2212L445.636 72.9357L421.555 92.8242ZM421.484 93V124.232H442.63L450.483 104.599L421.484 93ZM413.434 93L389.44 112.994L398.805 124.232H413.434V93ZM410.445 89.4141L434.439 69.4196L415.443 46.6253L391.706 64.4282L410.445 89.4141ZM404.223 92.6484L413.73 122.398L413.869 122.354L414.007 122.308L404.223 92.6484ZM384.992 89.6953L364.119 112.928L364.164 112.968L364.209 113.009L384.992 89.6953ZM402.148 87.4805L412.278 117.025L412.466 116.96L412.653 116.893L402.148 87.4805ZM406.789 84.9844L425.399 110.067L451.884 90.4168L430.823 65.0389L406.789 84.9844ZM394.098 69.6914L418.132 49.7459L399.45 27.2343L375.765 44.4054L394.098 69.6914ZM392.691 70.7109L374.359 45.425L374.177 45.5573L373.996 45.6922L392.691 70.7109ZM388.438 75.2812L360.323 61.6777L360.234 61.8626L360.147 62.0486L388.438 75.2812ZM392.832 57.2812L364.517 70.4622L364.562 70.5569L364.606 70.6514L392.832 57.2812ZM395.68 61.6758L371.221 81.0986L389.362 103.942L413.389 87.4016L395.68 61.6758ZM400.531 58.3359L383.207 32.3491L383.013 32.4782L382.821 32.6101L400.531 58.3359ZM403.238 55.4531L374.936 42.2455L374.87 42.387L374.805 42.5291L403.238 55.4531ZM402.254 48.1758L380.403 70.4916L380.518 70.6041L380.634 70.7155L402.254 48.1758ZM393.43 48.5273L417.988 67.8233L418.071 67.718L418.153 67.6119L393.43 48.5273ZM460.543 57.5273L429.803 63.0487L434.421 88.7596H460.543V57.5273ZM465.43 57.5273V88.7596H496.662V57.5273H465.43ZM459.242 50.2852L489.983 44.7638L488.219 34.9472L481.093 27.9694L459.242 50.2852ZM436.953 52.3242L462.012 70.9656L462.039 70.9292L462.066 70.8927L436.953 52.3242ZM436.848 82.5234L411.464 100.72L411.526 100.807L411.589 100.893L436.848 82.5234ZM459.242 84.5625L481.573 106.398L488.285 99.5331L489.983 90.0838L459.242 84.5625ZM460.543 77.3203V46.088H434.421L429.803 71.799L460.543 77.3203ZM465.43 77.3203H496.662V46.088H465.43V77.3203ZM465.43 86.4258L490.083 105.601L496.662 97.1418V86.4258H465.43ZM458.785 91.5234L472.753 119.458L472.841 119.414L472.929 119.369L458.785 91.5234ZM432.031 48.457L455.753 68.7734L455.777 68.7454L455.8 68.7174L432.031 48.457ZM458.785 43.3594L444.466 71.1159L444.554 71.1609L444.641 71.2054L458.785 43.3594ZM465.43 48.4219H496.662V37.6005L489.967 29.0988L465.43 48.4219ZM477.453 59.7422L501.383 79.8124L501.415 79.7746L501.446 79.7366L477.453 59.7422ZM502.309 59.707L478.379 79.7773L478.417 79.8224L478.455 79.8675L502.309 59.707ZM477.453 88.3242L453.523 108.394L453.555 108.433L453.587 108.471L477.453 88.3242ZM482.34 84.3867L456.068 101.276L456.121 101.358L456.175 101.441L482.34 84.3867ZM518.551 54.9609V86.1932H549.783V54.9609H518.551ZM512.609 54.9609V23.7287H481.377V54.9609H512.609ZM521.715 40.7578L499.161 19.1532L499.155 19.1585L521.715 40.7578ZM533 37.6289L527.572 68.3859L528.076 68.4749L528.583 68.5473L533 37.6289ZM535.707 38.1562L566.547 43.0907L571.124 14.4836L542.941 7.7733L535.707 38.1562ZM534.863 43.4297L528.088 73.9182L560.463 81.1128L565.703 48.3641L534.863 43.4297ZM533.316 43.1836L529.595 74.1934L529.666 74.2019L529.736 74.21L533.316 43.1836ZM526.953 44.9062L551.062 64.7608L551.157 64.6462L551.25 64.5306L526.953 44.9062ZM525.477 54.9609H494.244V86.1932H525.477V54.9609ZM533.422 54.9609H564.654V23.7287H533.422V54.9609ZM533.422 60.0938V91.326H564.654V60.0938H533.422ZM525.477 60.0938V28.8615H494.244V60.0938H525.477ZM525.477 87.5859H494.244V113.911L520.189 118.367L525.477 87.5859ZM531.207 88.5703H562.439V62.2456L536.495 57.7889L531.207 88.5703ZM531.207 93V124.232H562.439V93H531.207ZM512.82 93H481.588V124.232H512.82V93ZM512.82 88.5703L507.533 57.7889L481.588 62.2457V88.5703H512.82ZM518.551 87.5859L523.838 118.367L549.783 113.911V87.5859H518.551ZM518.551 60.0938H549.783V28.8615H518.551V60.0938ZM512.609 60.0938H481.377V91.326H512.609V60.0938ZM542.738 88.4648L519.301 109.108L519.373 109.19L519.446 109.272L542.738 88.4648ZM542.879 59.6719L519.619 38.8287L519.611 38.8375L542.879 59.6719ZM565.941 58.8984L542.126 79.105L542.171 79.1573L542.215 79.2093L565.941 58.8984ZM569.914 75.5977V106.83H601.146V75.5977H569.914ZM545.234 75.5977V44.3654H527.551L518.453 59.5288L545.234 75.5977ZM545.129 75.7734L518.347 59.7046L513.73 67.4006L513.902 76.3739L545.129 75.7734ZM547.906 84.8086L522.95 103.587L522.995 103.647L523.04 103.707L547.906 84.8086ZM561.547 87.3398L572.47 116.6L572.576 116.56L572.681 116.52L561.547 87.3398ZM566.152 84.5625L592.915 68.4629L573.3 35.8555L545.143 61.4525L566.152 84.5625ZM568.859 89.0625L590.553 111.531L608.436 94.2643L595.622 72.9629L568.859 89.0625ZM563.445 92.4023L575.045 121.401L575.123 121.37L575.2 121.338L563.445 92.4023ZM548.398 62.6602L572.273 82.7957L572.333 82.7253L572.392 82.6546L548.398 62.6602ZM545.375 70.0078L514.392 66.0734L513.373 74.0973L516.377 81.6072L545.375 70.0078ZM545.445 70.1836L516.447 81.783L524.3 101.416H545.445V70.1836ZM562.988 70.1836V101.416H594.221V70.1836H562.988ZM600.992 5.84923L576.424 -13.4339L536.776 37.0815H600.992V5.84923ZM602.179 5.84923V37.0815H616.137L625.448 26.6818L602.179 5.84923ZM601.915 4.67366L577.347 -14.6098L577.346 -14.6095L601.915 4.67366ZM604.798 1V-30.2323H589.609L580.23 -18.2835L604.798 1ZM651.887 1L676.455 -18.2832L667.077 -30.2323H651.887V1ZM654.77 4.67366L630.202 23.9569L630.202 23.9576L654.77 4.67366ZM655.693 5.84923V37.0815H719.912L680.261 -13.4347L655.693 5.84923ZM654.725 5.84923L633.7 28.9448L642.638 37.0815H654.725V5.84923ZM653.272 4.52671L674.297 -18.5688L665.359 -26.7056H653.272V4.52671ZM653.16 4.52671L628.592 23.8102L637.971 35.759H653.16V4.52671ZM651.315 2.17557L675.883 -17.1079L666.505 -29.0567H651.315V2.17557ZM605.37 2.17557V-29.0567H590.18L580.802 -17.1079L605.37 2.17557ZM603.525 4.52671V35.759H618.715L628.093 23.8102L603.525 4.52671ZM603.363 4.52671V-26.7056H589.404L580.094 -16.3058L603.363 4.52671ZM593.928 7.07892L589.603 -23.8525L589.603 -23.8525L593.928 7.07892ZM594.12 7.05201V-24.1803H591.947L589.796 -23.8794L594.12 7.05201ZM593.928 10.2035L598.252 -20.728L598.252 -20.728L593.928 10.2035ZM594.12 10.2304L589.796 41.1619L591.947 41.4627L594.12 41.4627L594.12 10.2304ZM594.318 10.2304L594.318 -21.0019L594.318 -21.0019L594.318 10.2304ZM662.331 10.2304V41.4627V10.2304ZM662.733 10.2304V41.4627H667.238L671.558 40.1899L662.733 10.2304ZM663.105 10.121L654.281 -19.8388L654.279 -19.8385L663.105 10.121ZM663.105 7.16143L654.279 37.1209L654.281 37.1212L663.105 7.16143ZM662.733 7.05201L671.558 -22.9075L667.238 -24.1803H662.733V7.05201ZM663.437 5.87644H694.669V-25.3558H663.437V5.87644ZM663.437 6.03376H632.205V29.3934L654.612 35.9935L663.437 6.03376ZM593.765 5.87644V-25.3558H562.532V5.87644H593.765ZM593.765 5.91467L598.089 36.8461L624.997 33.0843V5.91467H593.765ZM593.765 11.3677H624.997V-15.8019L598.089 -19.5637L593.765 11.3677ZM593.765 11.406H562.532V42.6383L593.765 42.6382L593.765 11.406ZM594.318 11.406L594.318 -19.8263L594.318 -19.8263L594.318 11.406ZM594.94 11.406L594.94 42.6382H594.94V11.406ZM595.177 11.406L626.06 6.75225L622.055 -19.8263L595.177 -19.8263V11.406ZM598.641 34.3969H629.873V32.057L629.525 29.7432L598.641 34.3969ZM598.641 34.5038H567.409V36.7675L567.735 39.0076L598.641 34.5038ZM604.313 73.4222L573.407 77.9261L577.911 108.83L608.815 104.328L604.313 73.4222ZM604.517 73.3924L635.401 68.7387L630.77 38.0063L600.015 42.4864L604.517 73.3924ZM608.038 96.7574L639.267 97.2106L639.304 94.643L638.922 92.1037L608.038 96.7574ZM608.029 97.3967L576.8 96.9434L576.346 128.173L607.576 128.626L608.029 97.3967ZM648.586 97.9844L648.133 129.213L679.362 129.666L679.815 98.4369L648.586 97.9844ZM648.603 96.809L617.719 92.1553L617.405 94.2443L617.374 96.3566L648.603 96.809ZM652.127 73.4219L656.519 42.5L625.858 38.1447L621.243 68.7682L652.127 73.4219ZM652.13 73.4222L647.737 104.344L678.549 108.721L683.036 77.9249L652.13 73.4222ZM652.209 72.8784L621.325 68.2248L621.314 68.3002L621.303 68.3758L652.209 72.8784ZM661.472 11.406V-19.8263H634.593L630.588 6.7523L661.472 11.406ZM663.437 11.406V42.6382H694.669V11.406H663.437ZM663.437 11.2487L654.612 -18.711L632.205 -12.1109V11.2487H663.437ZM660.283 11.406L691.167 16.0596L696.574 -19.8263H660.283V11.406ZM657.068 32.7404V63.9727H683.947L687.952 37.394L657.068 32.7404ZM596.366 11.406V-19.8263H560.075L565.482 16.0597L596.366 11.406ZM599.58 32.7404L568.697 37.3941L572.702 63.9727H599.58V32.7404ZM609.148 96.2372L578.265 100.891L582.211 127.082L608.696 127.466L609.148 96.2372ZM605.692 73.2976V42.0653H569.401L574.808 77.9513L605.692 73.2976ZM648.603 96.809L648.15 128.038L653.257 65.9254L648.603 96.809ZM647.44 96.6338L616.557 91.9801L611.903 122.864L642.787 127.517L647.44 96.6338ZM650.957 73.2976L681.84 77.9513L687.248 42.0653L650.957 42.0653V73.2976ZM600.423 34.5038V3.27149H564.31L569.517 39.0077L600.423 34.5038ZM656.019 34.5038L686.925 39.0077L692.133 3.27149L656.019 3.27149V34.5038ZM605.82 71.5342L574.914 76.0382L578.809 102.766H605.82V71.5342ZM650.623 71.5342V102.766H677.633L681.529 76.0382L650.623 71.5342ZM624.504 62.1297L617.648 92.6002L648.118 99.4558L654.974 68.9855L624.504 62.1297ZM628.773 43.1555L659.595 38.1119L598.302 36.2997L628.773 43.1555ZM622.783 61.7426L592.313 54.8867L585.457 85.3574L615.928 92.2131L622.783 61.7426ZM628.073 38.2312L634.929 7.76064L604.459 0.904946L597.603 31.3753L628.073 38.2312ZM629.051 38.4512L622.196 68.9217L628.111 70.2527L634.095 69.2735L629.051 38.4512ZM629.771 38.3335L660.593 33.2899L655.549 2.46738L624.727 7.51118L629.771 38.3335ZM632.602 55.6341L601.779 60.6777L607.962 98.4582L643.731 84.8161L632.602 55.6341ZM643.506 51.4754L654.635 80.6574L721.487 55.1612L657.338 23.4733L643.506 51.4754ZM632.071 45.8272L605.29 29.7579L587.853 58.8192L618.239 73.8293L632.071 45.8272ZM633.146 44.0363L647.226 16.1579L621.306 3.06668L606.365 27.967L633.146 44.0363ZM646.784 50.9244L676.468 60.6383L684.812 35.1406L660.864 23.046L646.784 50.9244ZM646.289 52.4398L657.423 81.6201L671.339 76.3101L675.972 62.1536L646.289 52.4398ZM632.914 57.5429L621.78 28.3626L597.978 37.4446L602.092 62.5865L632.914 57.5429ZM635.061 70.6617L640.105 101.484L670.927 96.4402L665.883 65.6181L635.061 70.6617ZM633.321 70.9464L602.498 75.9901L607.542 106.813L638.364 101.769L633.321 70.9464ZM631.232 58.1846L662.055 53.1409L655.871 15.3548L620.098 29.0043L631.232 58.1846ZM628.958 59.0524L599.068 68.1096L608.785 100.178L640.092 88.2326L628.958 59.0524ZM628.407 57.2339L617.277 28.052L590.074 38.4272L598.517 66.2911L628.407 57.2339ZM630.92 56.2755L642.049 85.4575L665.857 76.3776L661.742 51.2319L630.92 56.2755ZM626.203 45.8272L637.332 75.0091L664.653 64.5895L656.054 36.6426L626.203 45.8272ZM625.652 44.0363L655.503 34.8517L645.705 3.00593L614.558 14.8406L625.652 44.0363ZM611.104 51.5857L599.974 22.4037L533.123 47.8999L597.272 79.5878L611.104 51.5857ZM622.538 57.2339L649.427 73.1224L666.552 44.1407L636.371 29.2318L622.538 57.2339ZM621.464 59.0524L607.384 86.9308L633.48 100.111L648.353 74.9409L621.464 59.0524ZM607.825 52.1643L578.091 42.6075L569.926 68.0126L593.745 80.0427L607.825 52.1643ZM608.321 50.6213L597.228 21.4256L583.184 26.7618L578.587 41.0645L608.321 50.6213ZM111.504 122.423L132.005 31.3074L71.0638 17.5957L50.5627 108.712L111.504 122.423ZM65.9161 144.179L74.1774 146.038L87.8891 85.0971L79.6278 83.2383L65.9161 144.179ZM67.705 -6.05169L42.3014 106.853L103.242 120.565L128.646 7.66003L67.705 -6.05169ZM109.727 -28.6098L105.031 -29.6663L91.3196 31.2747L96.0155 32.3312L109.727 -28.6098ZM101.282 -29.5268L97.8277 -28.9616L107.915 32.6831L111.369 32.1178L101.282 -29.5268ZM150.325 76.7803L137.148 -3.74817L75.5033 6.33914L88.6807 86.8676L150.325 76.7803ZM161.154 32.5124L108.373 52.642L130.633 111.006L183.413 90.8763L161.154 32.5124ZM103.542 62.5729L158.451 89.6965L186.116 33.6922L131.207 6.56863L103.542 62.5729ZM95.7531 9.90174L90.593 18.5019L144.156 50.6396L149.316 42.0395L95.7531 9.90174ZM202.108 31.1697L136.615 -1.90783L108.455 53.8491L173.948 86.9266L202.108 31.1697ZM215.33 76.0396L217.711 68.7626L158.345 49.3337L155.963 56.6108L215.33 76.0396ZM132.137 120.171L196.78 95.5055L174.512 37.1449L109.869 61.8102L132.137 120.171ZM162.552 151.496L151.825 85.9468L90.1807 96.0341L100.907 161.583L162.552 151.496ZM128.416 188.729L136.773 187.362L126.686 125.717L118.329 127.085L128.416 188.729ZM82.1045 99.1156L92.5502 162.951L154.195 152.863L143.749 89.0283L82.1045 99.1156ZM113.557 127.26L124.061 123.252L101.793 64.8917L91.2894 68.8994L113.557 127.26ZM69.8871 98.4048L72.5333 107.137L132.313 89.0221L129.667 80.2896L69.8871 98.4048ZM100.297 55.7223L88.6476 60.1652L110.907 118.529L122.556 114.086L100.297 55.7223ZM70.712 29.4952L80.6043 89.9479L142.249 79.8606L132.357 19.4079L70.712 29.4952ZM119.044 25.3858L116.397 16.7856L56.695 35.1556L59.3412 43.7557L119.044 25.3858ZM27.816 91.4055L100.322 63.7527L78.0628 5.38882L5.55679 33.0416L27.816 91.4055ZM85.4275 61.345L30.5188 34.2215L2.85402 90.2257L57.7627 117.349L85.4275 61.345ZM93.3237 113.968L98.4838 105.236L44.7064 73.4584L39.5463 82.1909L93.3237 113.968ZM-13.1385 92.8806L52.355 125.958L80.515 70.2012L15.0215 37.1237L-13.1385 92.8806ZM-26.4109 48.0354L-28.7925 55.4448L30.6755 74.5595L33.0571 67.1501L-26.4109 48.0354ZM75.4527 -3.22511L-7.77037 28.397L14.4165 86.7885L97.6396 55.1663L75.4527 -3.22511ZM246.301 88.7596H251.188V26.2951H246.301V88.7596ZM214.26 55.8065L215.56 63.0487L277.041 52.006L275.74 44.7638L214.26 55.8065ZM228.549 76.2851C227.109 75.6683 225.128 74.5384 223.149 72.6009L266.851 27.9694C262.622 23.8288 257.875 20.8942 253.155 18.8711L228.549 76.2851ZM234.98 77.7557C234.137 77.7557 231.703 77.6369 228.549 76.2851L253.155 18.8711C246.719 16.1131 240.37 15.2912 234.98 15.2912V77.7557ZM247.824 70.8927C246.389 72.833 244.18 74.8345 241.272 76.2093C238.471 77.5335 236.131 77.7557 234.98 77.7557V15.2912C220.97 15.2912 207.033 20.9944 197.598 33.7558L247.824 70.8927ZM249.654 66.9844C249.654 66.5119 249.712 66.8134 249.47 67.6419C249.21 68.5296 248.688 69.7321 247.77 70.9656L197.652 33.6828C189.912 44.0869 187.19 55.9632 187.19 66.9844H249.654ZM249.654 67.793V66.9844H187.19V67.793H249.654ZM247.989 64.3267C248.829 65.4988 249.29 66.6102 249.512 67.39C249.718 68.1162 249.654 68.3266 249.654 67.793H187.19C187.19 78.6725 189.803 90.3716 197.222 100.72L247.989 64.3267ZM234.277 57.0919C235.921 57.0919 238.577 57.4362 241.533 58.9054C244.531 60.3956 246.615 62.4365 247.864 64.1535L197.347 100.893C206.302 113.207 219.777 119.556 234.277 119.556V57.0919ZM229.442 58.0653C231.574 57.2493 233.316 57.0919 234.277 57.0919V119.556C239.879 119.556 245.84 118.673 251.769 116.403L229.442 58.0653ZM222.669 62.7275C225.742 59.5845 228.627 58.3771 229.442 58.0653L251.769 116.403C256.38 114.639 262.196 111.65 267.331 106.398L222.669 62.7275ZM215.56 71.799L214.26 79.0412L275.74 90.0838L277.041 82.8416L215.56 71.799ZM251.188 46.088H246.301V108.553H251.188V46.088ZM282.42 86.4258V77.3203H219.955V86.4258H282.42ZM258.687 119.369C264.283 116.527 270.687 112.227 275.841 105.601L226.534 67.251C228.735 64.4218 230.709 63.52 230.399 63.6774L258.687 119.369ZM234.277 124.971C242.156 124.971 250.511 123.458 258.51 119.458L230.575 63.5884C232.668 62.5419 234.18 62.506 234.277 62.506V124.971ZM194.293 106.81C204.639 118.748 218.792 124.971 234.277 124.971V62.506C234.878 62.506 236.29 62.6378 238.021 63.4181C239.77 64.2063 240.926 65.242 241.496 65.9005L194.293 106.81ZM180.264 67.793C180.264 81.6072 184.4 95.3955 194.293 106.81L241.496 65.9005C241.716 66.1538 241.947 66.4708 242.16 66.8391C242.372 67.2071 242.523 67.5544 242.623 67.8455C242.83 68.4462 242.728 68.5296 242.728 67.793H180.264ZM180.264 67.0547V67.793H242.728V67.0547H180.264ZM194.068 28.1407C184.252 39.6016 180.264 53.3856 180.264 67.0547H242.728C242.728 66.2204 242.842 66.2333 242.654 66.7909C242.562 67.0633 242.417 67.4058 242.204 67.7806C241.991 68.1563 241.751 68.4925 241.51 68.7734L194.068 28.1407ZM234.277 9.84195C218.866 9.84195 204.486 15.9177 194.02 28.1967L241.558 68.7174C240.872 69.5221 239.617 70.6212 237.821 71.4251C236.067 72.2104 234.711 72.3065 234.277 72.3065V9.84195ZM258.862 15.6028C250.782 11.4349 242.299 9.84195 234.277 9.84195V72.3065C234.037 72.3065 232.397 72.2369 230.224 71.1159L258.862 15.6028ZM275.725 29.0988C270.576 22.5613 264.212 18.3196 258.687 15.5133L230.399 71.2054C230.499 71.2563 230.134 71.0834 229.491 70.5931C228.842 70.0989 227.785 69.1864 226.65 67.7449L275.725 29.0988ZM282.42 57.5273V48.4219H219.955V57.5273H282.42ZM239.281 39.6719C230.672 49.9365 227.408 62.0957 227.408 73.6289H289.873C289.873 73.6319 289.871 74.4224 289.45 75.7023C289.007 77.0496 288.238 78.5039 287.141 79.8124L239.281 39.6719ZM275.621 23.0255C262.156 23.0255 248.828 28.215 239.218 39.7478L287.204 79.7366C285.814 81.4046 283.784 83.064 281.223 84.196C278.743 85.2921 276.684 85.4901 275.621 85.4901V23.0255ZM311.996 39.6368C302.332 28.1141 288.987 23.0255 275.621 23.0255V85.4901C274.615 85.4901 272.598 85.3051 270.143 84.2301C267.601 83.117 265.556 81.4697 264.137 79.7773L311.996 39.6368ZM323.904 73.6289C323.904 62.0497 320.614 49.8331 311.92 39.5466L264.212 79.8675C263.1 78.5507 262.319 77.0832 261.869 75.7212C261.441 74.4283 261.44 73.6296 261.44 73.6289H323.904ZM323.904 74.4023V73.6289H261.44V74.4023H323.904ZM311.967 108.471C320.681 98.148 323.904 85.903 323.904 74.4023H261.44C261.44 74.4511 261.434 73.6793 261.855 72.3952C262.3 71.0388 263.085 69.541 264.236 68.1778L311.967 108.471ZM275.691 124.971C289.012 124.971 302.308 119.913 311.967 108.471L264.236 68.1778C265.656 66.4957 267.695 64.8619 270.225 63.7581C272.67 62.6915 274.681 62.506 275.691 62.506V124.971ZM239.345 108.471C249.062 119.982 262.424 124.971 275.691 124.971V62.506C276.641 62.506 278.616 62.6783 281.046 63.7323C283.568 64.8265 285.628 66.4613 287.077 68.1778L239.345 108.471ZM227.408 74.4023C227.408 85.9229 230.653 98.1067 239.281 108.394L287.141 68.254C288.249 69.5758 289.017 71.0369 289.457 72.3776C289.875 73.6495 289.873 74.4244 289.873 74.4023H227.408ZM227.408 73.6289V74.4023H289.873V73.6289H227.408ZM294.37 67.4976C296.742 71.1878 296.799 74.1699 296.799 74.4023H234.334C234.334 82.6973 236.078 92.3356 241.826 101.276L294.37 67.4976ZM275.691 57.0919C278.143 57.0919 281.761 57.5938 285.656 59.6133C289.638 61.678 292.474 64.5882 294.263 67.3327L241.933 101.441C249.872 113.622 262.66 119.556 275.691 119.556V57.0919ZM257.015 67.3327C258.739 64.6874 261.513 61.7868 265.489 59.6962C269.405 57.6371 273.098 57.0919 275.691 57.0919V119.556C288.932 119.556 301.55 113.4 309.345 101.441L257.015 67.3327ZM254.514 74.4023C254.514 74.0957 254.591 71.0503 257.015 67.3327L309.345 101.441C315.19 92.4731 316.978 82.7715 316.978 74.4023H254.514ZM254.514 73.6289V74.4023H316.978V73.6289H254.514ZM256.946 80.6274C254.632 77.0464 254.514 74.0798 254.514 73.6289H316.978C316.978 65.2093 315.149 55.6099 309.414 46.732L256.946 80.6274ZM275.621 90.9393C273.081 90.9393 269.4 90.4089 265.476 88.3466C261.481 86.2468 258.685 83.3193 256.946 80.6274L309.414 46.732C301.576 34.5999 288.845 28.4748 275.621 28.4748V90.9393ZM294.438 80.4626C292.689 83.2067 289.867 86.1857 285.828 88.3186C281.866 90.4103 278.157 90.9393 275.621 90.9393V28.4748C262.388 28.4748 249.58 34.6196 241.758 46.8968L294.438 80.4626ZM296.799 73.6289C296.799 74.0048 296.702 76.9087 294.438 80.4626L241.758 46.8968C236.118 55.7475 234.334 65.2842 234.334 73.6289H296.799ZM296.799 74.4023V73.6289H234.334V74.4023H296.799ZM333.916 120.41C340.603 117.11 346.008 112.302 350.056 106.651L299.273 70.279C300.836 68.0966 303.194 65.9138 306.272 64.395L333.916 120.41ZM313.871 124.971C320.179 124.971 327.198 123.769 334.061 120.337L306.126 64.4674C309.427 62.8171 312.298 62.506 313.871 62.506V124.971ZM278.384 107.969C287.516 119.628 300.622 124.971 313.871 124.971V62.506C315.349 62.506 317.857 62.7874 320.748 64.1211C323.723 65.4933 326.017 67.4811 327.561 69.453L278.384 107.969ZM267.838 75.4219C267.838 85.808 270.348 97.5445 278.236 107.778L327.709 69.6434C330.395 73.1274 330.303 76.0045 330.303 75.4219H267.838ZM267.838 74.6836V75.4219H330.303V74.6836H267.838ZM277.311 42.0801C270.034 52.5694 267.838 64.3306 267.838 74.6836H330.303C330.303 72.8022 330.708 74.6962 328.634 77.6855L277.311 42.0801ZM313.941 23.0255C299.354 23.0255 286.021 29.6366 277.386 41.9723L328.559 77.7933C327.292 79.603 325.131 81.8165 321.935 83.4551C318.768 85.0794 315.851 85.4901 313.941 85.4901V23.0255ZM333.697 27.5121C326.983 24.2014 320.128 23.0255 313.941 23.0255V85.4901C312.255 85.4901 309.361 85.158 306.069 83.5348L333.697 27.5121ZM348.986 39.9601C344.871 34.6592 339.567 30.2842 333.237 27.2899L306.529 83.757C303.667 82.4033 301.316 80.4189 299.639 78.2586L348.986 39.9601ZM293.08 43.6055V59.1094H355.545V43.6055H293.08ZM313.294 73.4025L319.025 74.3869L329.6 12.824L323.87 11.8397L313.294 73.4025ZM287.35 38.1562V42.6211H349.814V38.1562H287.35ZM324.312 6.92398H318.582V69.3885H324.312V6.92398ZM331.238 6.92398H324.312V69.3885H331.238V6.92398ZM362.471 87.5859V38.1562H300.006V87.5859H362.471ZM342.256 57.7889L336.526 56.8045L325.951 118.367L331.681 119.352L342.256 57.7889ZM368.201 93V88.5703H305.736V93H368.201ZM325.227 124.232H336.969V61.7677H325.227V124.232ZM293.669 92.3092L294.232 96.8443L356.221 89.1557L355.659 84.6205L293.669 92.3092ZM334.217 67.1278C337.206 71.5439 337.228 75.2115 337.228 75.4219H274.764C274.764 83.2729 276.357 93.0811 282.486 102.138L334.217 67.1278ZM315.629 56.881C317.644 56.881 321.006 57.2414 324.824 59.0675C328.83 60.9835 332.029 63.895 334.217 67.1278L282.486 102.138C290.927 114.61 304.03 119.346 315.629 119.346V56.881ZM303.507 60.7202C308.265 57.5485 312.897 56.881 315.629 56.881V119.346C322.486 119.346 330.587 117.741 338.157 112.694L303.507 60.7202ZM296.765 68.0173C297.916 65.863 300.033 63.0363 303.507 60.7202L338.157 112.694C344.443 108.503 348.881 103.028 351.86 97.4515L296.765 68.0173ZM293.08 65.0859V82.7344H355.545V65.0859H293.08ZM303.706 87.4069C300.645 85.4001 298.44 82.8125 297.048 80.3217L351.577 49.8502C348.403 44.1718 343.878 39.053 337.958 35.1713L303.706 87.4069ZM315.699 91.1151C312.634 91.1151 308.161 90.3285 303.706 87.4069L337.958 35.1713C330.644 30.3746 322.748 28.6505 315.699 28.6505V91.1151ZM335.354 79.6901C333.714 82.5121 330.905 85.7763 326.64 88.1637C322.438 90.516 318.437 91.1151 315.699 91.1151V28.6505C301.842 28.6505 288.816 35.4547 281.349 48.3021L335.354 79.6901ZM337.228 74.6836C337.228 73.7384 337.438 76.0528 335.455 79.5166L281.249 48.4756C276.124 57.4238 274.764 66.8632 274.764 74.6836H337.228ZM337.228 75.4219V74.6836H274.764V75.4219H337.228ZM323.696 109.272C333.531 120.281 346.676 124.971 359.645 124.971V62.506C360.471 62.506 362.267 62.6514 364.52 63.5901C366.861 64.5655 368.839 66.0442 370.28 67.6575L323.696 109.272ZM311.08 74.7188C311.08 86.4028 314.477 98.8064 323.551 109.108L370.426 67.8214C371.661 69.2236 372.539 70.8137 373.05 72.3162C373.535 73.7414 373.545 74.6536 373.545 74.7188H311.08ZM311.08 73.1719V74.7188H373.545V73.1719H311.08ZM323.861 38.8375C314.874 48.8747 311.08 61.0994 311.08 73.1719H373.545C373.545 73.5705 373.48 74.6961 372.933 76.2312C372.365 77.8226 371.471 79.3068 370.397 80.5063L323.861 38.8375ZM358.59 23.0255C344.36 23.0255 332.366 29.3469 323.869 38.8287L370.389 80.515C369.632 81.3598 368.13 82.7316 365.76 83.8512C363.319 85.0042 360.797 85.4901 358.59 85.4901V23.0255ZM394.006 38.6919C383.962 26.8541 370.297 23.0255 358.59 23.0255V85.4901C358.045 85.4901 356.211 85.4117 353.723 84.4164C351.059 83.351 348.448 81.5464 346.377 79.105L394.006 38.6919ZM405.396 71.2734C405.396 60.7062 402.588 48.7163 393.917 38.5876L346.465 79.2093C344.921 77.4054 343.958 75.4928 343.433 73.8589C342.937 72.3142 342.932 71.3378 342.932 71.2734H405.396ZM405.396 75.5977V71.2734H342.932V75.5977H405.396ZM349.484 106.83H374.164V44.3654H349.484V106.83ZM376.16 91.8423L376.266 91.6665L322.703 59.5288L322.597 59.7046L376.16 91.8423ZM377.112 66.0297C380.127 70.036 380.579 73.8234 380.605 75.1729L318.152 76.3739C318.319 85.0359 320.623 94.8469 327.2 103.587L377.112 66.0297ZM359.645 57.0919C361.877 57.0919 365.103 57.5143 368.637 59.1737C372.26 60.8746 375.074 63.3465 377.022 65.9105L327.29 103.707C335.57 114.601 347.695 119.556 359.645 119.556V57.0919ZM354.873 58.0802C357.359 57.1523 359.152 57.0919 359.645 57.0919V119.556C364.825 119.556 370.72 118.84 376.72 116.6L354.873 58.0802ZM349.393 61.4525C351.249 59.7655 353.147 58.7381 354.662 58.1598L376.931 116.52C382.01 114.582 386.978 111.703 391.411 107.673L349.393 61.4525ZM399.872 72.9629L397.165 68.4629L343.639 100.662L346.346 105.162L399.872 72.9629ZM379.45 121.338C384.389 119.332 389.884 116.281 394.803 111.531L351.416 66.594C353.616 64.4695 355.502 63.6447 355.94 63.4667L379.45 121.338ZM359.645 124.971C365.591 124.971 372.431 124.146 379.295 121.401L356.096 63.4039C358.507 62.4396 359.98 62.506 359.645 62.506V124.971ZM376.642 82.6546C375.125 84.475 372.724 86.6943 369.266 88.4133C365.723 90.1741 362.01 90.9393 358.59 90.9393V28.4748C345.958 28.4748 335.528 34.4179 328.655 42.6657L376.642 82.6546ZM380.608 73.9422C380.356 75.9276 379.386 79.4018 376.523 82.7957L328.773 42.5246C322.63 49.8091 319.644 58.1817 318.642 66.0734L380.608 73.9422ZM378.694 58.5842L378.623 58.4084L320.627 81.6072L320.697 81.783L378.694 58.5842ZM367.238 38.9513H349.695V101.416H367.238V38.9513ZM336.006 69.2695V70.1836H398.471V69.2695H336.006ZM340.609 81.8833C336.971 77.3067 336.006 72.3973 336.006 69.2695H398.471C398.471 60.7042 396.052 51.248 389.508 43.0151L340.609 81.8833ZM358.59 90.9393C356.733 90.9393 353.691 90.6439 350.162 89.1478C346.454 87.576 343.137 85.0632 340.609 81.8833L389.508 43.0151C380.801 32.0615 368.61 28.4748 358.59 28.4748V90.9393ZM358.198 52.6878C352.085 60.6349 349.26 69.9325 349.26 79.2188H411.724C411.724 80.8102 411.49 82.7888 410.778 84.9532C410.06 87.139 408.987 89.1108 407.709 90.7731L358.198 52.6878ZM373.219 39.1607C368.207 42.4543 362.72 46.8276 358.228 52.6489L407.679 90.8121C407.35 91.2379 407.075 91.5427 406.892 91.7337C406.708 91.9249 406.596 92.0233 406.583 92.0353C406.568 92.0478 406.632 91.9912 406.793 91.8708C406.953 91.7509 407.192 91.5802 407.523 91.3627L373.219 39.1607ZM358.286 72.896C360.473 77.3276 363.227 81.2759 365.838 84.5905L414.904 45.9329C414.433 45.3354 414.171 44.9576 414.058 44.7871C414.005 44.7072 414.005 44.7023 414.044 44.7696C414.083 44.8357 414.175 44.9981 414.3 45.2524L358.286 72.896ZM353.725 53.4492C353.725 60.3853 355.372 66.9174 358.215 72.753L414.37 45.3954C415.432 47.5748 416.189 50.3569 416.189 53.4492H353.725ZM366.998 21.5308C356.827 31.0727 353.725 43.3375 353.725 53.4492H416.189C416.189 54.4089 416.056 56.473 415.072 59.1104C414.033 61.8952 412.262 64.7166 409.736 67.0864L366.998 21.5308ZM397.824 9.84195C388.122 9.84195 376.532 12.5809 366.991 21.538L409.744 67.0792C407.475 69.2089 404.934 70.623 402.561 71.4345C400.3 72.2078 398.582 72.3065 397.824 72.3065V9.84195ZM427.995 21.2794C418.921 12.9386 407.899 9.84195 397.824 9.84195V72.3065C396.679 72.3065 394.763 72.1393 392.436 71.3152C390.029 70.463 387.706 69.09 385.723 67.2675L427.995 21.2794ZM441.572 51.9727C441.572 39.7468 436.383 28.9895 427.995 21.2794L385.723 67.2675C384.154 65.8247 382.359 63.6468 381.01 60.6631C379.645 57.6437 379.108 54.615 379.108 51.9727H441.572ZM433.629 76.4643C439.203 68.892 441.572 60.2564 441.572 51.9727H379.108C379.108 48.2826 380.234 43.6314 383.324 39.4342L433.629 76.4643ZM421.412 88.3301C425.374 85.445 429.904 81.551 433.674 76.4035L383.279 39.495C384.003 38.5075 384.583 37.9367 384.786 37.7457C384.998 37.546 384.987 37.5832 384.643 37.834L421.412 88.3301ZM417.675 91.073L421.507 88.2605L384.548 37.9035L380.716 40.716L417.675 91.073ZM435.166 60.3079L423.213 45.929L375.178 85.86L387.131 100.239L435.166 60.3079ZM383.411 66.4805C383.629 65.7314 384.033 64.7197 384.732 63.6109L437.565 96.936C440.186 92.7803 442.089 88.3936 443.386 83.9414L383.411 66.4805ZM382.975 69.3398C382.975 68.6528 383.069 67.6558 383.411 66.4805L443.386 83.9414C444.806 79.063 445.439 74.1518 445.439 69.3398H382.975ZM420.395 38.1076H414.207V100.572H420.395V38.1076ZM448.519 88.1535C450.696 81.8994 451.627 75.543 451.627 69.3398H389.162C389.162 69.2773 389.179 68.6162 389.528 67.6122L448.519 88.1535ZM439.066 104.917C443.253 99.8819 446.405 94.2245 448.519 88.1535L389.528 67.6122C389.814 66.7912 390.318 65.8447 391.035 64.9814L439.066 104.917ZM445.636 72.9357L439.132 65.0607L390.97 104.838L397.474 112.713L445.636 72.9357ZM450.483 104.599L450.553 104.424L392.556 81.2248L392.486 81.4006L450.483 104.599ZM413.434 124.232H421.484V61.7677H413.434V124.232ZM386.452 109.408L389.44 112.994L437.427 73.0056L434.439 69.4196L386.452 109.408ZM414.007 122.308C419.43 120.52 424.54 117.883 429.185 114.4L391.706 64.4282C392.601 63.7572 393.563 63.2772 394.438 62.9885L414.007 122.308ZM397.156 124.971C402.751 124.971 408.318 124.128 413.73 122.398L394.715 62.8985C395.581 62.6218 396.437 62.506 397.156 62.506V124.971ZM364.209 113.009C374.308 122.011 386.437 124.971 397.156 124.971V62.506C397.342 62.506 398.464 62.5284 400.152 63.0895C401.936 63.6824 403.939 64.7449 405.775 66.382L364.209 113.009ZM349.26 79.2188C349.26 91.7359 354.068 103.898 364.119 112.928L405.865 66.4625C407.523 67.9518 409.169 70.0632 410.314 72.7285C411.439 75.3469 411.724 77.6688 411.724 79.2188H349.26ZM392.019 57.9364C393.547 57.4126 395.302 57.0919 397.156 57.0919V119.556C402.386 119.556 407.469 118.673 412.278 117.025L392.019 57.9364ZM388.179 59.9018C389.104 59.2162 390.273 58.5572 391.644 58.0677L412.653 116.893C417.305 115.232 421.568 112.909 425.399 110.067L388.179 59.9018ZM370.064 89.6369L382.755 104.93L430.823 65.0389L418.132 49.7459L370.064 89.6369ZM411.024 95.9969L412.43 94.9774L375.765 44.4054L374.359 45.425L411.024 95.9969ZM416.552 88.8848C415.218 91.64 413.725 93.4309 412.89 94.3278C412.03 95.2517 411.426 95.7001 411.387 95.7297L373.996 45.6922C370.154 48.5632 364.184 53.6997 360.323 61.6777L416.552 88.8848ZM418.65 79.2188C418.65 83.9811 417.312 87.2659 416.728 88.5139L360.147 62.0486C358.204 66.2029 356.186 72.1126 356.186 79.2188H418.65ZM412.303 63.9821C414.365 66.1017 416.086 68.7281 417.221 71.7017C418.333 74.6155 418.65 77.246 418.65 79.2188H356.186C356.186 89.0271 359.546 99.33 367.525 107.534L412.303 63.9821ZM397.156 57.0919C399.57 57.0919 406.356 57.8676 412.303 63.9821L367.525 107.534C376.8 117.07 388.414 119.556 397.156 119.556V57.0919ZM421.147 44.1003C422.044 46.0287 423.115 49.2231 423.115 53.3789H360.651C360.651 60.0191 362.354 65.8151 364.517 70.4622L421.147 44.1003ZM420.138 42.253C420.029 42.1154 420.079 42.1654 420.229 42.3975C420.375 42.6231 420.689 43.1321 421.058 43.9111L364.606 70.6514C366.561 74.7771 368.985 78.2827 371.221 81.0986L420.138 42.253ZM382.821 32.6101L377.97 35.95L413.389 87.4016L418.241 84.0618L382.821 32.6101ZM374.805 42.5291C377.554 36.4815 381.621 33.4064 383.207 32.3491L417.856 84.3228C422.114 81.4842 427.985 76.4872 431.671 68.3771L374.805 42.5291ZM372.744 51.9727C372.744 49.0791 373.334 45.678 374.936 42.2455L431.54 68.6608C434.127 63.1189 435.209 57.3975 435.209 51.9727H372.744ZM380.634 70.7155C378.754 68.9122 376.678 66.3244 375.104 62.8553C373.499 59.3169 372.744 55.5776 372.744 51.9727H435.209C435.209 41.0288 430.398 31.8937 423.874 25.636L380.634 70.7155ZM397.824 77.7557C395.598 77.7557 392.651 77.4167 389.387 76.1993C386.039 74.9502 382.963 72.9982 380.403 70.4916L424.105 25.86C416.202 18.1219 406.403 15.2912 397.824 15.2912V77.7557ZM418.153 67.6119C415.719 70.7648 412.375 73.5652 408.26 75.4416C404.26 77.2655 400.554 77.7557 397.824 77.7557V15.2912C387.626 15.2912 376.446 19.4167 368.707 29.4428L418.153 67.6119ZM423.115 53.3789C423.115 57.3452 421.92 62.8198 417.988 67.8233L368.871 29.2314C362.877 36.8599 360.651 45.5688 360.651 53.3789H423.115ZM460.543 88.7596H465.43V26.2951H460.543V88.7596ZM428.502 55.8065L429.803 63.0487L491.283 52.006L489.983 44.7638L428.502 55.8065ZM442.791 76.2851C441.352 75.6683 439.37 74.5384 437.391 72.6009L481.093 27.9694C476.864 23.8288 472.117 20.8942 467.397 18.8711L442.791 76.2851ZM449.223 77.7557C448.38 77.7557 445.945 77.6369 442.791 76.2851L467.397 18.8711C460.961 16.1131 454.613 15.2912 449.223 15.2912V77.7557ZM462.066 70.8927C460.632 72.833 458.422 74.8345 455.514 76.2093C452.713 77.5335 450.373 77.7557 449.223 77.7557V15.2912C435.212 15.2912 421.276 20.9944 411.84 33.7558L462.066 70.8927ZM463.896 66.9844C463.896 66.5119 463.954 66.8134 463.712 67.6419C463.452 68.5296 462.93 69.7321 462.012 70.9656L411.894 33.6828C404.155 44.0869 401.432 55.9632 401.432 66.9844H463.896ZM463.896 67.793V66.9844H401.432V67.793H463.896ZM462.231 64.3267C463.072 65.4988 463.533 66.6102 463.754 67.39C463.96 68.1162 463.896 68.3266 463.896 67.793H401.432C401.432 78.6725 404.045 90.3716 411.464 100.72L462.231 64.3267ZM448.52 57.0919C450.163 57.0919 452.819 57.4362 455.775 58.9054C458.774 60.3956 460.858 62.4365 462.106 64.1535L411.589 100.893C420.545 113.207 434.019 119.556 448.52 119.556V57.0919ZM443.684 58.0653C445.817 57.2493 447.558 57.0919 448.52 57.0919V119.556C454.122 119.556 460.082 118.673 466.011 116.403L443.684 58.0653ZM436.911 62.7275C439.984 59.5845 442.87 58.3771 443.684 58.0653L466.011 116.403C470.623 114.639 476.438 111.65 481.573 106.398L436.911 62.7275ZM429.803 71.799L428.502 79.0412L489.983 90.0838L491.283 82.8416L429.803 71.799ZM465.43 46.088H460.543V108.553H465.43V46.088ZM496.662 86.4258V77.3203H434.197V86.4258H496.662ZM472.929 119.369C478.526 116.527 484.929 112.227 490.083 105.601L440.776 67.251C442.977 64.4218 444.951 63.52 444.641 63.6774L472.929 119.369ZM448.52 124.971C456.398 124.971 464.753 123.458 472.753 119.458L444.818 63.5884C446.911 62.5419 448.422 62.506 448.52 62.506V124.971ZM408.535 106.81C418.881 118.748 433.034 124.971 448.52 124.971V62.506C449.121 62.506 450.532 62.6378 452.264 63.4181C454.013 64.2063 455.168 65.242 455.739 65.9005L408.535 106.81ZM394.506 67.793C394.506 81.6072 398.642 95.3955 408.535 106.81L455.739 65.9005C455.958 66.1538 456.19 66.4708 456.402 66.8391C456.614 67.2071 456.765 67.5544 456.865 67.8455C457.072 68.4462 456.971 68.5296 456.971 67.793H394.506ZM394.506 67.0547V67.793H456.971V67.0547H394.506ZM408.31 28.1407C398.494 39.6016 394.506 53.3856 394.506 67.0547H456.971C456.971 66.2204 457.085 66.2333 456.896 66.7909C456.804 67.0633 456.659 67.4058 456.446 67.7806C456.233 68.1563 455.993 68.4925 455.753 68.7734L408.31 28.1407ZM448.52 9.84195C433.108 9.84195 418.728 15.9177 408.262 28.1967L455.8 68.7174C455.114 69.5221 453.859 70.6212 452.063 71.4251C450.31 72.2104 448.954 72.3065 448.52 72.3065V9.84195ZM473.104 15.6028C465.025 11.4349 456.541 9.84195 448.52 9.84195V72.3065C448.279 72.3065 446.639 72.2369 444.466 71.1159L473.104 15.6028ZM489.967 29.0988C484.819 22.5613 478.454 18.3196 472.929 15.5133L444.641 71.2054C444.741 71.2563 444.376 71.0834 443.733 70.5931C443.084 70.0989 442.028 69.1864 440.892 67.7449L489.967 29.0988ZM496.662 57.5273V48.4219H434.197V57.5273H496.662ZM453.523 39.6719C444.914 49.9365 441.651 62.0957 441.651 73.6289H504.115C504.115 73.6319 504.113 74.4224 503.692 75.7023C503.249 77.0496 502.481 78.5039 501.383 79.8124L453.523 39.6719ZM489.863 23.0255C476.399 23.0255 463.07 28.215 453.46 39.7478L501.446 79.7366C500.056 81.4046 498.027 83.064 495.465 84.196C492.985 85.2921 490.926 85.4901 489.863 85.4901V23.0255ZM526.238 39.6368C516.574 28.1141 503.229 23.0255 489.863 23.0255V85.4901C488.857 85.4901 486.84 85.3051 484.385 84.2301C481.843 83.117 479.798 81.4697 478.379 79.7773L526.238 39.6368ZM538.146 73.6289C538.146 62.0497 534.856 49.8331 526.163 39.5466L478.455 79.8675C477.342 78.5507 476.561 77.0832 476.111 75.7212C475.683 74.4283 475.682 73.6296 475.682 73.6289H538.146ZM538.146 74.4023V73.6289H475.682V74.4023H538.146ZM526.21 108.471C534.924 98.148 538.146 85.903 538.146 74.4023H475.682C475.682 74.4511 475.676 73.6793 476.097 72.3952C476.543 71.0388 477.327 69.541 478.478 68.1778L526.21 108.471ZM489.934 124.971C503.254 124.971 516.55 119.913 526.21 108.471L478.478 68.1778C479.898 66.4957 481.937 64.8619 484.467 63.7581C486.912 62.6915 488.923 62.506 489.934 62.506V124.971ZM453.587 108.471C463.304 119.982 476.666 124.971 489.934 124.971V62.506C490.883 62.506 492.858 62.6783 495.288 63.7323C497.81 64.8265 499.87 66.4613 501.319 68.1778L453.587 108.471ZM441.651 74.4023C441.651 85.9229 444.895 98.1067 453.523 108.394L501.383 68.254C502.492 69.5758 503.259 71.0369 503.7 72.3776C504.117 73.6495 504.115 74.4244 504.115 74.4023H441.651ZM441.651 73.6289V74.4023H504.115V73.6289H441.651ZM508.612 67.4976C510.984 71.1878 511.041 74.1699 511.041 74.4023H448.576C448.576 82.6973 450.321 92.3356 456.068 101.276L508.612 67.4976ZM489.934 57.0919C492.385 57.0919 496.004 57.5938 499.898 59.6133C503.88 61.678 506.716 64.5882 508.505 67.3327L456.175 101.441C464.114 113.622 476.903 119.556 489.934 119.556V57.0919ZM471.257 67.3327C472.981 64.6874 475.755 61.7868 479.731 59.6962C483.647 57.6371 487.34 57.0919 489.934 57.0919V119.556C503.174 119.556 515.792 113.4 523.587 101.441L471.257 67.3327ZM468.756 74.4023C468.756 74.0957 468.834 71.0503 471.257 67.3327L523.587 101.441C529.432 92.4731 531.221 82.7715 531.221 74.4023H468.756ZM468.756 73.6289V74.4023H531.221V73.6289H468.756ZM471.188 80.6274C468.874 77.0464 468.756 74.0798 468.756 73.6289H531.221C531.221 65.2093 529.391 55.6099 523.656 46.732L471.188 80.6274ZM489.863 90.9393C487.323 90.9393 483.643 90.4089 479.719 88.3466C475.724 86.2468 472.927 83.3193 471.188 80.6274L523.656 46.732C515.818 34.5999 503.087 28.4748 489.863 28.4748V90.9393ZM508.68 80.4626C506.931 83.2067 504.109 86.1857 500.07 88.3186C496.109 90.4103 492.399 90.9393 489.863 90.9393V28.4748C476.63 28.4748 463.823 34.6196 456 46.8968L508.68 80.4626ZM511.041 73.6289C511.041 74.0048 510.944 76.9087 508.68 80.4626L456 46.8968C450.361 55.7475 448.576 65.2842 448.576 73.6289H511.041ZM511.041 74.4023V73.6289H448.576V74.4023H511.041ZM518.551 23.7287H512.609V86.1932H518.551V23.7287ZM487.318 50.1445V54.9609H549.783V50.1445H487.318ZM499.155 19.1585C489.845 28.8825 487.318 40.7648 487.318 50.1445H549.783C549.783 51.4148 549.366 57.0394 544.274 62.3572L499.155 19.1585ZM530.609 6.1857C520.403 6.1857 508.498 9.40533 499.161 19.1532L544.269 62.3624C542.008 64.7225 539.294 66.4493 536.517 67.4919C533.868 68.4866 531.734 68.6502 530.609 68.6502V6.1857ZM538.428 6.87188C535.867 6.41992 533.254 6.1857 530.609 6.1857V68.6502C529.559 68.6502 528.54 68.5566 527.572 68.3859L538.428 6.87188ZM542.941 7.7733C541.221 7.36379 539.363 6.9886 537.417 6.71054L528.583 68.5473C528.42 68.524 528.33 68.5066 528.32 68.5046C528.309 68.5025 528.358 68.5119 528.473 68.5392L542.941 7.7733ZM565.703 48.3641L566.547 43.0907L504.867 33.2218L504.023 38.4953L565.703 48.3641ZM529.736 74.21C529.672 74.2025 529.504 74.1822 529.253 74.1422C529.008 74.1033 528.607 74.0336 528.088 73.9182L541.638 12.9411C539.827 12.5386 538.174 12.3046 536.896 12.1572L529.736 74.21ZM531.488 74.3104C530.966 74.3104 530.329 74.2815 529.595 74.1934L537.038 12.1738C535.132 11.9451 533.276 11.8459 531.488 11.8459V74.3104ZM551.25 64.5306C548.262 68.2299 544.473 70.9019 540.502 72.5025C536.743 74.0177 533.502 74.3104 531.488 74.3104V11.8459C523.084 11.8459 511.263 14.6257 502.656 25.2819L551.25 64.5306ZM556.709 50.1445C556.709 51.7104 556.452 58.2167 551.062 64.7608L502.844 25.0517C495.486 33.9865 494.244 43.9849 494.244 50.1445H556.709ZM556.709 54.9609V50.1445H494.244V54.9609H556.709ZM533.422 23.7287H525.477V86.1932H533.422V23.7287ZM564.654 60.0938V54.9609H502.19V60.0938H564.654ZM525.477 91.326H533.422V28.8615H525.477V91.326ZM556.709 87.5859V60.0938H494.244V87.5859H556.709ZM536.495 57.7889L530.764 56.8045L520.189 118.367L525.919 119.352L536.495 57.7889ZM562.439 93V88.5703H499.975V93H562.439ZM512.82 124.232H531.207V61.7677H512.82V124.232ZM481.588 88.5703V93H544.053V88.5703H481.588ZM513.263 56.8045L507.533 57.7889L518.108 119.352L523.838 118.367L513.263 56.8045ZM487.318 60.0938V87.5859H549.783V60.0938H487.318ZM512.609 91.326H518.551V28.8615H512.609V91.326ZM481.377 54.9609V60.0938H543.842V54.9609H481.377ZM519.446 109.272C529.281 120.281 542.426 124.971 555.395 124.971V62.506C556.221 62.506 558.017 62.6514 560.27 63.5901C562.611 64.5655 564.589 66.0442 566.03 67.6575L519.446 109.272ZM506.83 74.7188C506.83 86.4028 510.227 98.8064 519.301 109.108L566.175 67.8214C567.411 69.2236 568.289 70.8137 568.8 72.3162C569.285 73.7414 569.295 74.6536 569.295 74.7188H506.83ZM506.83 73.1719V74.7188H569.295V73.1719H506.83ZM519.611 38.8375C510.624 48.8747 506.83 61.0994 506.83 73.1719H569.295C569.295 73.5705 569.23 74.6961 568.683 76.2312C568.115 77.8226 567.221 79.3068 566.146 80.5063L519.611 38.8375ZM554.34 23.0255C540.11 23.0255 528.116 29.3469 519.619 38.8287L566.139 80.515C565.382 81.3598 563.88 82.7316 561.51 83.8512C559.069 85.0042 556.547 85.4901 554.34 85.4901V23.0255ZM589.756 38.6919C579.712 26.8541 566.047 23.0255 554.34 23.0255V85.4901C553.795 85.4901 551.961 85.4117 549.473 84.4164C546.809 83.351 544.198 81.5464 542.126 79.105L589.756 38.6919ZM601.146 71.2734C601.146 60.7062 598.338 48.7163 589.667 38.5876L542.215 79.2093C540.671 77.4054 539.708 75.4928 539.183 73.8589C538.687 72.3142 538.682 71.3378 538.682 71.2734H601.146ZM601.146 75.5977V71.2734H538.682V75.5977H601.146ZM545.234 106.83H569.914V44.3654H545.234V106.83ZM571.91 91.8423L572.016 91.6665L518.453 59.5288L518.347 59.7046L571.91 91.8423ZM572.862 66.0297C575.877 70.036 576.329 73.8234 576.355 75.1729L513.902 76.3739C514.069 85.0359 516.373 94.8469 522.95 103.587L572.862 66.0297ZM555.395 57.0919C557.627 57.0919 560.853 57.5143 564.387 59.1737C568.01 60.8746 570.824 63.3465 572.772 65.9105L523.04 103.707C531.32 114.601 543.445 119.556 555.395 119.556V57.0919ZM550.623 58.0802C553.109 57.1523 554.902 57.0919 555.395 57.0919V119.556C560.575 119.556 566.47 118.84 572.47 116.6L550.623 58.0802ZM545.143 61.4525C546.999 59.7655 548.897 58.7381 550.412 58.1598L572.681 116.52C577.76 114.582 582.728 111.703 587.161 107.673L545.143 61.4525ZM595.622 72.9629L592.915 68.4629L539.389 100.662L542.096 105.162L595.622 72.9629ZM575.2 121.338C580.139 119.332 585.634 116.281 590.553 111.531L547.166 66.594C549.366 64.4695 551.252 63.6447 551.69 63.4667L575.2 121.338ZM555.395 124.971C561.341 124.971 568.181 124.146 575.045 121.401L551.846 63.4039C554.257 62.4396 555.73 62.506 555.395 62.506V124.971ZM572.392 82.6546C570.875 84.475 568.474 86.6943 565.015 88.4133C561.473 90.1741 557.76 90.9393 554.34 90.9393V28.4748C541.708 28.4748 531.278 34.4179 524.405 42.6657L572.392 82.6546ZM576.358 73.9422C576.106 75.9276 575.136 79.4018 572.273 82.7957L524.523 42.5246C518.38 49.8091 515.394 58.1817 514.392 66.0734L576.358 73.9422ZM574.444 58.5842L574.373 58.4084L516.377 81.6072L516.447 81.783L574.444 58.5842ZM562.988 38.9513H545.445V101.416H562.988V38.9513ZM531.756 69.2695V70.1836H594.221V69.2695H531.756ZM536.359 81.8833C532.721 77.3067 531.756 72.3973 531.756 69.2695H594.221C594.221 60.7042 591.802 51.248 585.258 43.0151L536.359 81.8833ZM554.34 90.9393C552.483 90.9393 549.441 90.6439 545.912 89.1478C542.204 87.576 538.887 85.0632 536.359 81.8833L585.258 43.0151C576.551 32.0615 564.36 28.4748 554.34 28.4748V90.9393ZM600.992 37.0815H602.179V-25.383H600.992V37.0815ZM577.346 -14.6095L576.424 -13.4339L625.561 25.1324L626.484 23.9568L577.346 -14.6095ZM580.23 -18.2835L577.347 -14.6098L626.483 23.9571L629.367 20.2835L580.23 -18.2835ZM651.887 -30.2323H604.798V32.2323H651.887V-30.2323ZM679.339 -14.6096L676.455 -18.2832L627.318 20.2832L630.202 23.9569L679.339 -14.6096ZM680.261 -13.4347L679.338 -14.6103L630.202 23.9576L631.125 25.1331L680.261 -13.4347ZM654.725 37.0815H655.693V-25.383H654.725V37.0815ZM632.247 27.6223L633.7 28.9448L675.75 -17.2463L674.297 -18.5688L632.247 27.6223ZM653.16 35.759H653.272V-26.7056H653.16V35.759ZM626.747 21.4591L628.592 23.8102L677.729 -14.7568L675.883 -17.1079L626.747 21.4591ZM605.37 33.4078H651.315V-29.0567H605.37V33.4078ZM628.093 23.8102L629.938 21.4591L580.802 -17.1079L578.956 -14.7568L628.093 23.8102ZM603.363 35.759H603.525V-26.7056H603.363V35.759ZM625.448 26.6818L626.632 25.3592L580.094 -16.3058L578.91 -14.9833L625.448 26.6818ZM598.252 38.0104L598.444 37.9835L589.796 -23.8794L589.603 -23.8525L598.252 38.0104ZM623.408 8.64121C623.408 27.2689 608.578 36.5668 598.252 38.0104L589.603 -23.8525C576.948 -22.0833 560.943 -11.2301 560.943 8.64121H623.408ZM598.252 -20.728C608.578 -19.2844 623.408 -9.98647 623.408 8.64121H560.943C560.943 28.5125 576.948 39.3658 589.603 41.135L598.252 -20.728ZM598.444 -20.7011L598.252 -20.728L589.603 41.135L589.796 41.1619L598.444 -20.7011ZM594.318 -21.0019L594.12 -21.0019L594.12 41.4627L594.318 41.4627L594.318 -21.0019ZM662.331 -21.0019L594.318 -21.0019L594.318 41.4627L662.331 41.4627L662.331 -21.0019ZM662.331 -21.0019H662.331V41.4627H662.331V-21.0019ZM662.733 -21.0019H662.331V41.4627H662.733V-21.0019ZM654.279 -19.8385L653.908 -19.7291L671.558 40.1899L671.93 40.0805L654.279 -19.8385ZM633.241 8.64121C633.241 -7.71228 645.101 -17.1353 654.281 -19.8388L671.929 40.0808C682.96 36.8318 695.705 26.0987 695.705 8.64121H633.241ZM654.281 37.1212C645.101 34.4177 633.241 24.9947 633.241 8.64121H695.705C695.705 -8.81632 682.96 -19.5494 671.929 -22.7984L654.281 37.1212ZM653.908 37.0115L654.279 37.1209L671.93 -22.798L671.558 -22.9075L653.908 37.0115ZM662.331 38.2843H662.733V-24.1803H662.331V38.2843ZM594.318 38.2843H662.331V-24.1803H594.318V38.2843ZM594.12 38.2843H594.318V-24.1803H594.12V38.2843ZM632.205 5.87644V6.03376H694.669V5.87644H632.205ZM662.331 37.1087H663.437V-25.3558H662.331V37.1087ZM662.261 37.1087H662.331V-25.3558H662.261V37.1087ZM594.94 37.1087H662.261V-25.3558H594.94V37.1087ZM594.318 37.1087H594.94V-25.3558H594.318V37.1087ZM593.765 37.1087H594.318V-25.3558H593.765V37.1087ZM624.997 5.91467V5.87644H562.532V5.91467H624.997ZM622.232 8.64121C622.232 27.1473 607.272 35.5624 598.089 36.8461L589.44 -25.0168C577.12 -23.2943 559.768 -12.6048 559.768 8.64121H622.232ZM598.089 -19.5637C607.272 -18.28 622.232 -9.86491 622.232 8.64121H559.768C559.768 29.8872 577.12 40.5767 589.44 42.2992L598.089 -19.5637ZM624.997 11.406V11.3677H562.532V11.406H624.997ZM594.318 -19.8263L593.765 -19.8263L593.765 42.6382L594.318 42.6382L594.318 -19.8263ZM594.94 -19.8263L594.318 -19.8263L594.318 42.6382L594.94 42.6382L594.94 -19.8263ZM595.177 -19.8263H594.94V42.6382H595.177V-19.8263ZM629.525 29.7432L626.06 6.75225L564.293 16.0597L567.758 39.0507L629.525 29.7432ZM629.873 34.5038V34.3969H567.409V34.5038H629.873ZM635.219 68.9183L629.547 29.9999L567.735 39.0076L573.407 77.9261L635.219 68.9183ZM600.015 42.4864L599.811 42.5162L608.815 104.328L609.019 104.299L600.015 42.4864ZM638.922 92.1037L635.401 68.7387L573.634 78.0462L577.154 101.411L638.922 92.1037ZM639.258 97.8499L639.267 97.2106L576.809 96.3042L576.8 96.9434L639.258 97.8499ZM649.038 66.7554L608.481 66.1677L607.576 128.626L648.133 129.213L649.038 66.7554ZM617.374 96.3566L617.357 97.532L679.815 98.4369L679.832 97.2614L617.374 96.3566ZM621.243 68.7682L617.719 92.1553L679.487 101.463L683.011 78.0755L621.243 68.7682ZM656.522 42.5004L656.519 42.5L647.735 104.344L647.737 104.344L656.522 42.5004ZM621.303 68.3758L621.224 68.9196L683.036 77.9249L683.115 77.3811L621.303 68.3758ZM630.588 6.7523L621.325 68.2248L683.093 77.5321L692.355 16.0597L630.588 6.7523ZM662.261 -19.8263H661.472V42.6382H662.261V-19.8263ZM662.331 -19.8263H662.261V42.6382H662.331V-19.8263ZM662.331 -19.8263H662.331V42.6382H662.331V-19.8263ZM663.437 -19.8263H662.331V42.6382H663.437V-19.8263ZM632.205 11.2487V11.406H694.669V11.2487H632.205ZM634.416 8.64121C634.416 -7.47181 646.267 -16.2529 654.612 -18.711L672.261 41.2084C683.184 37.9911 696.881 27.1618 696.881 8.64121H634.416ZM654.612 35.9935C646.267 33.5353 634.416 24.7542 634.416 8.64121H696.881C696.881 -9.8794 683.184 -20.7087 672.261 -23.9259L654.612 35.9935ZM629.399 6.75236L626.185 28.0868L687.952 37.394L691.167 16.0596L629.399 6.75236ZM596.366 42.6382H660.283V-19.8263H596.366V42.6382ZM630.464 28.0867L627.249 6.75227L565.482 16.0597L568.697 37.3941L630.464 28.0867ZM657.068 1.50813H599.58V63.9727H657.068V1.50813ZM640.032 91.5835L636.575 68.6439L574.808 77.9513L578.265 100.891L640.032 91.5835ZM649.055 65.58L609.601 65.0082L608.696 127.466L648.15 128.038L649.055 65.58ZM642.787 127.517L643.949 127.693L653.257 65.9254L652.094 65.7502L642.787 127.517ZM620.073 68.6439L616.557 91.9801L678.324 101.288L681.84 77.9513L620.073 68.6439ZM605.692 104.53H650.957V42.0653H605.692V104.53ZM600.423 65.736H656.019V3.27149H600.423V65.736ZM636.725 67.0303L631.329 29.9998L569.517 39.0077L574.914 76.0382L636.725 67.0303ZM650.623 40.3019H605.82V102.766H650.623V40.3019ZM625.113 29.9998L619.717 67.0303L681.529 76.0382L686.925 39.0077L625.113 29.9998ZM654.974 68.9855L659.243 50.0114L598.302 36.2997L594.033 55.2738L654.974 68.9855ZM615.928 92.2131L617.648 92.6002L631.359 31.6591L629.639 31.272L615.928 92.2131ZM597.603 31.3753L592.313 54.8867L653.254 68.5985L658.544 45.0871L597.603 31.3753ZM635.907 7.98066L634.929 7.76064L621.218 68.7017L622.196 68.9217L635.907 7.98066ZM624.727 7.51118L624.008 7.62888L634.095 69.2735L634.814 69.1558L624.727 7.51118ZM663.424 50.5905L660.593 33.2899L598.948 43.3771L601.779 60.6777L663.424 50.5905ZM632.376 22.2935L621.472 26.4522L643.731 84.8161L654.635 80.6574L632.376 22.2935ZM618.239 73.8293L629.673 79.4776L657.338 23.4733L645.904 17.825L618.239 73.8293ZM606.365 27.967L605.29 29.7579L658.853 61.8965L659.927 60.1056L606.365 27.967ZM660.864 23.046L647.226 16.1579L619.066 71.9147L632.704 78.8028L660.864 23.046ZM675.972 62.1536L676.468 60.6383L617.101 41.2105L616.605 42.7259L675.972 62.1536ZM644.048 86.7232L657.423 81.6201L635.155 23.2595L621.78 28.3626L644.048 86.7232ZM665.883 65.6181L663.736 52.4994L602.092 62.5865L604.238 75.7052L665.883 65.6181ZM638.364 101.769L640.105 101.484L630.017 39.8394L628.277 40.1241L638.364 101.769ZM600.41 63.2283L602.498 75.9901L664.143 65.9027L662.055 53.1409L600.41 63.2283ZM640.092 88.2326L642.366 87.3649L620.098 29.0043L617.824 29.8721L640.092 88.2326ZM598.517 66.2911L599.068 68.1096L658.848 49.9951L658.297 48.1767L598.517 66.2911ZM619.79 27.0936L617.277 28.052L639.537 86.4158L642.049 85.4575L619.79 27.0936ZM597.951 48.1992L600.097 61.3192L661.742 51.2319L659.595 38.1119L597.951 48.1992ZM656.054 36.6426L655.503 34.8517L595.801 53.2209L596.352 55.0118L656.054 36.6426ZM622.234 80.7676L637.332 75.0091L615.073 16.6452L599.974 22.4037L622.234 80.7676ZM636.371 29.2318L624.936 23.5835L597.272 79.5878L608.706 85.236L636.371 29.2318ZM648.353 74.9409L649.427 73.1224L595.649 41.3454L594.575 43.1638L648.353 74.9409ZM593.745 80.0427L607.384 86.9308L635.544 31.1739L621.905 24.2858L593.745 80.0427ZM578.587 41.0645L578.091 42.6075L637.56 61.721L638.055 60.1781L578.587 41.0645ZM614.558 14.8406L597.228 21.4256L619.415 79.817L636.745 73.232L614.558 14.8406Z" fill="white" mask="url(#path-1-inside-1)"/>
</svg>
